<svg width="22" height="21" viewBox="0 0 22 21" fill="none" xmlns="http://www.w3.org/2000/svg">
<path d="M12.4425 15.9131C10.7946 15.9131 9.1431 15.9865 7.49525 15.9388C5.2235 15.8691 4.29132 15.0433 4.05643 12.7789C3.74448 9.74377 3.53162 6.70132 3.27472 3.66253C3.20499 2.84779 3.12792 2.12479 2.00489 2.06607C1.3663 2.03304 0.852498 1.53758 1.00297 0.799909C1.15711 0.0475527 1.78469 -0.0772284 2.44162 0.0365425C4.94825 0.476946 5.41802 0.535667 5.26754 2.65694C5.17946 3.90842 5.87677 3.99651 6.85667 3.98917C10.8864 3.95613 14.9161 3.96347 18.9457 3.97815C21.3496 3.98917 22.2855 5.09017 21.9258 7.4133C21.6285 9.34007 21.3423 11.2668 21.0487 13.1936C20.7918 14.8745 19.8192 15.825 18.1163 15.8764C16.2299 15.9388 14.3362 15.9131 12.4425 15.9131C12.4461 15.8947 12.4425 15.9278 12.4425 15.9131ZM12.9599 6.04071C10.89 6.04071 8.82013 6.07374 6.75024 6.02603C5.8731 6.00401 5.55014 6.29761 5.63822 7.17842C5.81805 8.99142 5.93916 10.8118 6.08963 12.6321C6.17404 13.656 6.81997 13.8946 7.7338 13.8909C10.9598 13.8689 14.1857 13.8579 17.4117 13.8946C18.4797 13.9093 18.9678 13.4505 19.0999 12.4339C19.3164 10.7457 19.5036 9.05014 19.8339 7.38394C20.0578 6.25357 19.6357 6.00401 18.6228 6.0297C16.7327 6.07374 14.8463 6.04071 12.9599 6.04071Z" fill="#FAFCFC"/>
<path d="M8.08733 18.9334C7.9075 19.9169 7.45976 20.5298 6.51289 20.5078C5.47794 20.4858 4.9201 19.7958 4.97882 18.8563C5.03387 18.0012 5.63575 17.4507 6.60097 17.5057C7.5772 17.5608 7.92585 18.203 8.08733 18.9334Z" fill="#FAFCFC"/>
<path d="M18.2211 20.5376C17.2815 20.4752 16.6833 20.0275 16.6393 19.1063C16.5989 18.2145 17.0356 17.6016 17.9935 17.5318C19.0285 17.4548 19.6083 17.9796 19.634 18.9962C19.6634 19.9284 19.0615 20.3798 18.2211 20.5376Z" fill="#FAFCFC"/>
<path d="M13.0105 8.22437V9.76579H14.4895V10.1585H13.0105V11.7109H12.5921V10.1585H11.1094V9.76212H12.5921V8.2207H13.0105V8.22437Z" fill="#FAFCFC"/>
</svg>
