<svg width="19" height="19" viewBox="0 0 19 19" fill="none" xmlns="http://www.w3.org/2000/svg">
<path d="M9.61188 18.9754C7.81624 18.9754 6.02281 18.9952 4.22717 18.9688C2.12748 18.9379 1.12942 17.9487 1.10518 15.86C1.07654 13.551 1.09857 11.242 1.09417 8.93303C1.09417 8.48137 1.22856 8.0275 0.486073 7.89531C-0.124224 7.78735 -0.0757526 7.2101 0.175416 6.74081C0.880452 5.41887 1.60532 4.10795 2.32578 2.79482C2.55932 2.3718 2.94709 2.25062 3.40977 2.16249C7.0385 1.47508 10.6606 0.756823 14.2827 0.0407716C14.9944 -0.100236 15.4328 0.117885 15.7699 0.798685C16.7195 2.73092 17.7418 4.62791 18.7289 6.54252C19.0373 7.1396 19.2797 7.7543 18.2992 7.95259C17.733 8.06716 17.9071 8.49459 17.9049 8.81847C17.8916 11.1253 17.9137 13.4342 17.8938 15.7432C17.874 17.9707 16.9046 18.9379 14.6661 18.971C12.9806 18.9952 11.2974 18.9754 9.61188 18.9754ZM9.52595 7.97022C7.43508 7.97022 5.34421 7.97463 3.25334 7.96581C2.8171 7.96361 2.47119 7.96361 2.4778 8.57831C2.50424 11.0349 2.48 13.4915 2.50203 15.9481C2.50864 16.5518 2.6805 17.1489 3.33265 17.3736C4.32631 17.7195 5.45217 17.8165 6.35109 17.4618C6.95698 17.2216 6.50752 16.1332 6.59565 15.4304C6.6309 15.1418 6.59124 14.8399 6.6331 14.5535C6.78513 13.4915 7.35576 12.7402 8.35163 12.3216C10.5527 11.3963 12.5532 13.1853 12.4254 15.3753C12.2888 17.7195 12.4056 17.7262 14.6375 17.5763C16.063 17.4816 16.4882 17.0476 16.5014 15.567C16.519 13.3307 16.475 11.0922 16.5234 8.85592C16.5389 8.10241 16.2745 7.93937 15.5782 7.9548C13.5623 7.99666 11.5441 7.97022 9.52595 7.97022ZM2.0019 6.58218C6.86004 6.58218 11.575 6.57777 16.2921 6.58659C16.8429 6.58659 17.158 6.55794 16.7812 5.87935C16.0938 4.63672 15.446 3.36766 14.8358 2.08317C14.5956 1.58083 14.2871 1.48609 13.7914 1.58524C10.6055 2.21537 7.41746 2.83007 4.22937 3.45799C3.92312 3.51748 3.56179 3.4646 3.38113 3.84356C2.96692 4.72485 2.35001 5.507 2.0019 6.58218ZM7.9903 16.0297C7.9903 17.5829 7.9903 17.5829 9.57002 17.5829C9.82559 17.5829 10.0856 17.5609 10.3389 17.5873C10.8898 17.6446 11.0506 17.3736 11.0065 16.8735C10.9823 16.5827 11.0021 16.2874 11.0021 15.9944C11.0021 14.2759 10.5394 13.4915 9.52816 13.4893C8.43535 13.4871 7.9903 14.2208 7.9903 16.0297Z" fill="#B76D68"/>
</svg>
