<svg width="65" height="65" viewBox="0 0 65 65" fill="none" xmlns="http://www.w3.org/2000/svg">
<g filter="url(#filter0_d_401_257)">
<rect x="4" y="4" width="57" height="57" rx="5" fill="black"/>
</g>
<path d="M42.3568 28.671C38.6296 32.4075 38.8623 35.691 43.1885 38.6827C42.4127 40.9048 41.3234 42.9531 39.4613 44.5265C38.3565 45.4607 37.0871 45.5259 35.8209 44.9983C33.9992 44.241 32.2457 44.269 30.4209 45.0138C29.0244 45.5848 27.7426 45.3179 26.5726 44.2565C23.0068 41.0321 21.1354 34.5582 22.6654 30.5082C23.9316 27.1596 27.1406 25.5365 30.5109 26.7003C32.1061 27.2527 33.5026 27.2651 35.1195 26.6506C38.1206 25.5148 40.9354 26.4241 42.3568 28.671Z" fill="white"/>
<path d="M37.7886 20.3306C38.1734 23.2199 35.7527 26.0316 32.8603 26.0595C32.4103 23.2664 34.8558 20.4237 37.7886 20.3306Z" fill="white"/>
<defs>
<filter id="filter0_d_401_257" x="0" y="0" width="65" height="65" filterUnits="userSpaceOnUse" color-interpolation-filters="sRGB">
<feFlood flood-opacity="0" result="BackgroundImageFix"/>
<feColorMatrix in="SourceAlpha" type="matrix" values="0 0 0 0 0 0 0 0 0 0 0 0 0 0 0 0 0 0 127 0" result="hardAlpha"/>
<feOffset/>
<feGaussianBlur stdDeviation="2"/>
<feComposite in2="hardAlpha" operator="out"/>
<feColorMatrix type="matrix" values="0 0 0 0 0 0 0 0 0 0 0 0 0 0 0 0 0 0 0.25 0"/>
<feBlend mode="normal" in2="BackgroundImageFix" result="effect1_dropShadow_401_257"/>
<feBlend mode="normal" in="SourceGraphic" in2="effect1_dropShadow_401_257" result="shape"/>
</filter>
</defs>
</svg>
