<svg width="20" height="21" viewBox="0 0 20 21" fill="none" xmlns="http://www.w3.org/2000/svg">
<path d="M19.8962 9.96409C19.7888 11.4542 19.1893 13.3219 17.5814 14.3269C16.1745 15.2036 16.0393 16.5585 15.4329 17.7506C15.1522 18.305 14.972 18.9183 14.8057 19.5213C14.6844 19.9545 14.5354 20.3149 14.0191 20.2213C13.4439 20.1173 13.2013 19.5802 13.4092 19.1852C14.0503 17.955 14.0226 17.0956 12.4701 16.7733C12.6815 14.916 10.7583 14.6387 10.0202 13.4848C9.79146 13.1244 9.5385 12.563 8.96673 12.9823C8.58209 13.263 7.70191 13.2041 8.07269 14.1293C8.19397 14.4343 8.2113 14.9471 7.80933 15.013C5.83413 15.3283 6.70044 16.4372 7.00539 17.4907C7.15786 18.0139 7.11974 18.6515 6.97766 19.1886C6.82519 19.7743 6.5549 20.5401 5.71977 20.2698C5.03365 20.0446 5.39404 19.4451 5.50493 18.9495C5.79947 17.6397 5.09949 16.4857 4.77375 15.3006C4.34406 13.7551 3.02379 12.8299 1.91144 11.7244C-0.83652 8.99728 -0.555833 4.71074 2.33074 2.24347C4.94009 0.0118323 8.88356 0.548949 11.1291 3.52562C11.5899 4.13897 11.8498 4.21867 12.6087 4.03501C16.6077 3.0786 19.9308 5.63597 19.8962 9.96409ZM1.53026 7.09485C1.52679 9.75964 3.68912 12.2442 6.03858 12.2789C8.41922 12.3135 10.7652 9.73885 10.7721 7.08445C10.7791 4.49936 8.64446 2.39594 6.04551 2.43059C3.502 2.46524 1.53373 4.49936 1.53026 7.09485ZM13.8354 5.30677C12.8686 5.26172 12.0162 5.60824 12.2137 7.26118C12.3592 8.48788 11.8464 9.67994 11.1568 10.6571C10.5434 11.5235 10.7999 12.0779 11.3612 12.7328C12.5741 14.1363 14.3206 14.5521 15.8349 13.769C17.6472 12.8333 18.7596 10.4631 18.2883 8.54679C17.7789 6.46763 16.275 5.26865 13.8354 5.30677Z" fill="#B76D68"/>
<path d="M6.75453 4.87051C6.77532 5.2205 6.55008 5.42149 6.26939 5.49079C5.27139 5.72989 4.67883 6.31899 4.46398 7.33431C4.38428 7.7051 4.06201 7.88183 3.66351 7.81945C3.25807 7.75361 3.10213 7.4556 3.06055 7.08828C2.89768 5.72296 4.80705 3.92449 6.12038 4.20864C6.47384 4.28488 6.78572 4.41656 6.75453 4.87051Z" fill="#B76D68"/>
<path d="M14.6834 7.05423C15.8373 7.07849 16.9635 8.26707 16.9635 9.43141C16.9635 9.81952 16.8353 10.0933 16.4645 10.2146C16.0903 10.3358 15.7646 10.2284 15.6502 9.83338C15.425 9.05369 14.9502 8.57895 14.1636 8.35717C13.8171 8.26014 13.6126 7.90669 13.7131 7.53937C13.8448 7.06116 14.2606 7.01958 14.6834 7.05423Z" fill="#B76D68"/>
</svg>
