<?xml version="1.0" encoding="utf-8"?>
<svg xmlns="http://www.w3.org/2000/svg" viewBox="0 0 500 500">
  <desc>Created with Fabric.js 5.2.4</desc>
  <g transform="matrix(0.429286, 0, 0, 0.429286, 248.673309, 260.248199)" id="184c3bab-a464-4adc-b634-859ea145d3fe" style="">
    <rect style="stroke: none; stroke-width: 1; stroke-dasharray: none; stroke-linecap: butt; stroke-dashoffset: 0; stroke-linejoin: miter; stroke-miterlimit: 4; fill: rgb(255,255,255); fill-rule: nonzero; opacity: 1; visibility: hidden;" vector-effect="non-scaling-stroke" x="-540" y="-540" rx="0" ry="0" width="1080" height="1080"/>
  </g>
  <g transform="matrix(0.429286, 0, 0, 0.429286, 248.673309, 260.248199)" id="df760cfe-59e5-4b13-b2d6-0bd2b4f3caf5" style=""/>
  <g transform="matrix(0.429286, 0, 0, 0.429286, 248.673309, 260.248199)" style="">
    <g style="" vector-effect="non-scaling-stroke">
      <g transform="matrix(1 0 0 1 0 0)">
        <rect style="stroke: none; stroke-width: 1; stroke-dasharray: none; stroke-linecap: butt; stroke-dashoffset: 0; stroke-linejoin: miter; stroke-miterlimit: 4; fill: rgb(255,255,255); fill-rule: nonzero; opacity: 1; visibility: hidden;" vector-effect="non-scaling-stroke" x="-540" y="-540" rx="0" ry="0" width="1080" height="1080"/>
      </g>
      <g transform="matrix(53.22 0 0 53.22 -0.28 162.62)">
        <path style="stroke: rgb(183,109,104); stroke-width: 1.5; stroke-dasharray: none; stroke-linecap: butt; stroke-dashoffset: 0; stroke-linejoin: miter; stroke-miterlimit: 4; fill: none; fill-rule: nonzero; opacity: 1;" vector-effect="non-scaling-stroke" transform=" translate(-7.11, -12.32)" d="M 0 7.57921 C 0 7.05599 0.424151 6.63184 0.947369 6.63184 L 13.2632 6.63184 C 13.7864 6.63184 14.2105 7.05599 14.2105 7.5792 L 14.2105 15.1581 C 14.2105 16.7278 12.9381 18.0003 11.3684 18.0003 L 2.8421 18.0003 C 1.27245 18.0003 0 16.7278 0 15.1582 L 0 7.57921 Z" stroke-linecap="round"/>
      </g>
      <g transform="matrix(53.22 0 0 53.22 1.17 -290.35)">
        <path style="stroke: rgb(183,109,104); stroke-width: 1.5; stroke-dasharray: none; stroke-linecap: butt; stroke-dashoffset: 0; stroke-linejoin: miter; stroke-miterlimit: 4; fill: none; fill-rule: nonzero; opacity: 1;" vector-effect="non-scaling-stroke" transform=" translate(-7.1, -3.79)" d="M 3.3418 4.26316 C 3.3418 2.18482 5.02662 0.5 7.10495 0.5 C 9.18329 0.5 10.8681 2.18482 10.8681 4.26316 L 10.8681 7.07895 L 3.3418 7.07895 L 3.3418 4.26316 Z" stroke-linecap="round"/>
      </g>
    </g>
  </g>
</svg>