<?xml version="1.0" standalone="no"?>
<!DOCTYPE svg PUBLIC "-//W3C//DTD SVG 20010904//EN"
 "http://www.w3.org/TR/2001/REC-SVG-20010904/DTD/svg10.dtd">
<svg version="1.0" xmlns="http://www.w3.org/2000/svg"
 width="151.000000pt" height="131.000000pt" viewBox="0 0 151.000000 131.000000"
 preserveAspectRatio="xMidYMid meet">

<g transform="translate(0.000000,131.000000) scale(0.100000,-0.100000)"
fill="#000000" stroke="none">
<path d="M305 1148 c-76 -26 -119 -95 -113 -180 7 -98 70 -158 165 -158 70 0
118 23 150 71 50 75 40 173 -22 228 -53 46 -119 60 -180 39z m108 -52 c48 -20
69 -50 74 -103 6 -56 -19 -97 -73 -119 -70 -29 -129 -12 -159 46 -32 61 -14
128 44 167 39 26 68 29 114 9z"/>
<path d="M780 975 l0 -25 230 0 230 0 0 25 0 25 -230 0 -230 0 0 -25z"/>
<path d="M1025 511 c-48 -22 -69 -44 -90 -94 -21 -51 -19 -97 8 -148 31 -58
84 -89 155 -89 103 0 174 69 174 170 0 76 -49 145 -121 169 -47 15 -79 14
-126 -8z m120 -45 c45 -19 75 -69 75 -124 0 -37 -6 -50 -34 -78 -29 -29 -41
-34 -81 -34 -90 0 -143 58 -131 142 7 48 32 79 76 97 35 14 56 13 95 -3z"/>
<path d="M180 350 l0 -30 235 0 235 0 0 30 0 30 -235 0 -235 0 0 -30z"/>
</g>
</svg>
