<svg width="22" height="20" viewBox="0 0 22 20" fill="none" xmlns="http://www.w3.org/2000/svg">
<path d="M16.0004 8.80537C16.0004 8.45937 16.0004 8.28637 16.0524 8.13237C16.2034 7.68437 16.6024 7.51137 17.0024 7.32937C17.4504 7.12437 17.6744 7.02237 17.8974 7.00437C18.1494 6.98437 18.4024 7.03837 18.6184 7.15937C18.9044 7.31937 19.1044 7.62537 19.3084 7.87337C20.2514 9.01937 20.7234 9.59237 20.8954 10.2234C21.0354 10.7334 21.0354 11.2674 20.8954 11.7764C20.6444 12.6984 19.8494 13.4704 19.2604 14.1864C18.9594 14.5514 18.8084 14.7344 18.6184 14.8414C18.3987 14.9632 18.1478 15.0172 17.8974 14.9964C17.6744 14.9784 17.4504 14.8764 17.0014 14.6714C16.6014 14.4894 16.2034 14.3164 16.0524 13.8684C16.0004 13.7144 16.0004 13.5414 16.0004 13.1954V8.80537ZM6.0004 8.80537C6.0004 8.36937 5.9884 7.97837 5.6364 7.67237C5.5084 7.56137 5.3384 7.48437 4.9994 7.32937C4.5504 7.12537 4.3264 7.02237 4.1034 7.00437C3.4364 6.95037 3.0774 7.40637 2.6934 7.87437C1.7494 9.01937 1.2774 9.59237 1.1044 10.2244C0.965201 10.7327 0.965201 11.2691 1.1044 11.7774C1.3564 12.6984 2.1524 13.4714 2.7404 14.1864C3.1114 14.6364 3.4664 15.0474 4.1034 14.9964C4.3264 14.9784 4.5504 14.8764 4.9994 14.6714C5.3394 14.5174 5.5084 14.4394 5.6364 14.3284C5.9884 14.0224 6.0004 13.6314 6.0004 13.1964V8.80537Z" stroke="#B76D68" stroke-width="1.5" stroke-linecap="round" stroke-linejoin="round"/>
<path d="M4 7C4 3.686 7.134 1 11 1C14.866 1 18 3.686 18 7M18 15V15.8C18 17.567 16.21 19 14 19H12" stroke="#B76D68" stroke-width="1.5" stroke-linecap="round" stroke-linejoin="round"/>
</svg>
