<svg width="22" height="16" viewBox="0 0 22 16" fill="none" xmlns="http://www.w3.org/2000/svg">
<path d="M21.54 4.88L20.12 3.46L18 5.59L15.88 3.46L14.46 4.88L16.59 7L14.46 9.12L15.88 10.54L18 8.41L20.12 10.54L21.54 9.12L19.41 7L21.54 4.88ZM8.00004 0C6.93917 0 5.92176 0.421427 5.17161 1.17157C4.42147 1.92172 4.00004 2.93913 4.00004 4C4.00004 5.06087 4.42147 6.07828 5.17161 6.82843C5.92176 7.57857 6.93917 8 8.00004 8C9.06091 8 10.0783 7.57857 10.8285 6.82843C11.5786 6.07828 12 5.06087 12 4C12 2.93913 11.5786 1.92172 10.8285 1.17157C10.0783 0.421427 9.06091 0 8.00004 0ZM8.00004 1.9C8.55699 1.9 9.09114 2.12125 9.48496 2.51508C9.87879 2.9089 10.1 3.44305 10.1 4C10.1 4.55695 9.87879 5.0911 9.48496 5.48492C9.09114 5.87875 8.55699 6.1 8.00004 6.1C7.44308 6.1 6.90894 5.87875 6.51511 5.48492C6.12129 5.0911 5.90004 4.55695 5.90004 4C5.90004 3.44305 6.12129 2.9089 6.51511 2.51508C6.90894 2.12125 7.44308 1.9 8.00004 1.9ZM8.00004 9C5.33004 9 3.8147e-05 10.33 3.8147e-05 13C3.8147e-05 14.6569 1.34318 16 3.00004 16H13C14.6569 16 16 14.6569 16 13C16 10.33 10.67 9 8.00004 9ZM8.00004 10.9C11 10.9 14.1 12.36 14.1 13C14.1 13.6075 13.6076 14.1 13 14.1H3.00004C2.39252 14.1 1.90004 13.6075 1.90004 13C1.90004 12.36 5.03004 10.9 8.00004 10.9Z" fill="#B76D68"/>
</svg>
