<svg width="38" height="36" viewBox="0 0 38 36" fill="none" xmlns="http://www.w3.org/2000/svg">
<path d="M1.72727 9.59153V7.86426C1.26917 7.86426 0.829833 8.04624 0.505906 8.37016C0.18198 8.69409 0 9.13343 0 9.59153H1.72727ZM20.7273 9.59153H22.4545C22.4545 9.13343 22.2726 8.69409 21.9486 8.37016C21.6247 8.04624 21.1854 7.86426 20.7273 7.86426V9.59153ZM20.7273 13.0461V11.3188C20.2692 11.3188 19.8298 11.5008 19.5059 11.8247C19.182 12.1486 19 12.588 19 13.0461H20.7273ZM1.72727 11.3188H20.7273V7.86426H1.72727V11.3188ZM19 9.59153V30.3188H22.4545V9.59153H19ZM3.45455 26.8643V9.59153H0V26.8643H3.45455ZM20.7273 14.7733H29.3636V11.3188H20.7273V14.7733ZM34.5455 19.9552V26.8643H38V19.9552H34.5455ZM22.4545 30.3188V13.0461H19V30.3188H22.4545ZM30.5848 31.54C30.2609 31.8638 29.8216 32.0457 29.3636 32.0457C28.9056 32.0457 28.4664 31.8638 28.1425 31.54L25.7001 33.9823C26.6718 34.9538 27.9896 35.4995 29.3636 35.4995C30.7377 35.4995 32.0554 34.9538 33.0272 33.9823L30.5848 31.54ZM28.1425 29.0976C28.4664 28.7738 28.9056 28.5919 29.3636 28.5919C29.8216 28.5919 30.2609 28.7738 30.5848 29.0976L33.0272 26.6553C32.0554 25.6838 30.7377 25.1381 29.3636 25.1381C27.9896 25.1381 26.6718 25.6838 25.7001 26.6553L28.1425 29.0976ZM9.85754 31.54C9.53363 31.8638 9.09437 32.0457 8.63636 32.0457C8.17835 32.0457 7.73909 31.8638 7.41518 31.54L4.97282 33.9823C5.94455 34.9538 7.26233 35.4995 8.63636 35.4995C10.0104 35.4995 11.3282 34.9538 12.2999 33.9823L9.85754 31.54ZM7.41518 29.0976C7.73909 28.7738 8.17835 28.5919 8.63636 28.5919C9.09437 28.5919 9.53363 28.7738 9.85754 29.0976L12.2999 26.6553C11.3282 25.6838 10.0104 25.1381 8.63636 25.1381C7.26233 25.1381 5.94455 25.6838 4.97282 26.6553L7.41518 29.0976ZM30.5848 29.0976C30.9234 29.4344 31.0909 29.8749 31.0909 30.3188H34.5455C34.5455 28.9957 34.0394 27.6657 33.0272 26.6553L30.5848 29.0976ZM31.0909 30.3188C31.0908 30.7769 30.9088 31.2161 30.5848 31.54L33.0272 33.9823C33.999 33.0108 34.5452 31.693 34.5455 30.3188H31.0909ZM25.9091 28.5915H20.7273V32.0461H25.9091V28.5915ZM28.1425 31.54C27.8185 31.2161 27.6365 30.7769 27.6364 30.3188H24.1818C24.1818 31.6419 24.6879 32.9719 25.7001 33.9823L28.1425 31.54ZM27.6364 30.3188C27.6365 29.8607 27.8185 29.4215 28.1425 29.0976L25.7001 26.6553C24.7282 27.6268 24.1821 28.9446 24.1818 30.3188H27.6364ZM7.41518 31.54C7.09123 31.2161 6.90919 30.7769 6.90909 30.3188H3.45455C3.45455 31.6419 3.96064 32.9719 4.97282 33.9823L7.41518 31.54ZM6.90909 30.3188C6.90919 29.8607 7.09123 29.4215 7.41518 29.0976L4.97282 26.6553C4.00097 27.6268 3.45484 28.9446 3.45455 30.3188H6.90909ZM20.7273 28.5915H12.0909V32.0461H20.7273V28.5915ZM9.85754 29.0976C10.1961 29.4344 10.3636 29.8749 10.3636 30.3188H13.8182C13.8182 28.9957 13.3121 27.6657 12.2999 26.6553L9.85754 29.0976ZM10.3636 30.3188C10.3635 30.7769 10.1815 31.2161 9.85754 31.54L12.2999 33.9823C13.2718 33.0108 13.8179 31.693 13.8182 30.3188H10.3636ZM34.5455 26.8643C34.5455 27.3224 34.3635 27.7617 34.0396 28.0856C33.7156 28.4096 33.2763 28.5915 32.8182 28.5915V32.0461C34.1925 32.0461 35.5105 31.5001 36.4823 30.5284C37.4541 29.5566 38 28.2386 38 26.8643H34.5455ZM29.3636 14.7733C30.7379 14.7733 32.056 15.3193 33.0277 16.2911C33.9995 17.2628 34.5455 18.5809 34.5455 19.9552H38C38 18.821 37.7766 17.698 37.3426 16.6502C36.9086 15.6024 36.2724 14.6503 35.4705 13.8483C34.6685 13.0464 33.7164 12.4102 32.6686 11.9762C31.6208 11.5422 30.4978 11.3188 29.3636 11.3188V14.7733ZM0 26.8643C0 28.2386 0.54594 29.5566 1.51772 30.5284C2.4895 31.5001 3.80751 32.0461 5.18182 32.0461V28.5915C4.72372 28.5915 4.28438 28.4096 3.96045 28.0856C3.63653 27.7617 3.45455 27.3224 3.45455 26.8643H0Z" fill="#B76D68"/>
<path opacity="0.16" d="M20.7285 9.59082H1.72852V26.8635C1.72852 27.7797 2.09248 28.6584 2.74033 29.3063C3.38818 29.9541 4.26686 30.3181 5.18306 30.3181C5.18306 29.4019 5.54702 28.5232 6.19487 27.8754C6.84273 27.2275 7.7214 26.8635 8.63761 26.8635C9.55381 26.8635 10.4325 27.2275 11.0803 27.8754C11.7282 28.5232 12.0922 29.4019 12.0922 30.3181H20.7285V9.59082Z" fill="#B76D68"/>
<path d="M11.2275 7.86395C11.2275 6.48964 10.6815 5.17163 9.70973 4.19985C8.73795 3.22807 7.41994 2.68213 6.04563 2.68213C5.58753 2.68213 5.14819 2.86411 4.82427 3.18804C4.50034 3.51196 4.31836 3.9513 4.31836 4.4094C4.31836 5.78371 4.8643 7.10172 5.83608 8.0735C6.80786 9.04528 8.12587 9.59122 9.50018 9.59122H11.2275M11.2275 7.86395V9.59122M11.2275 7.86395C11.2275 6.48964 11.7734 5.17163 12.7452 4.19985C13.7169 3.22807 15.035 2.68213 16.4093 2.68213C16.8674 2.68213 17.3067 2.86411 17.6306 3.18804C17.9546 3.51196 18.1365 3.9513 18.1365 4.4094C18.1365 5.78371 17.5906 7.10172 16.6188 8.0735C15.647 9.04528 14.329 9.59122 12.9547 9.59122H11.2275" stroke="#B76D68" stroke-width="3.45455" stroke-linejoin="round"/>
</svg>
