<svg width="15" height="15" viewBox="0 0 15 15" fill="none" xmlns="http://www.w3.org/2000/svg">
<path d="M3.82947 14.2191C4.25165 14.1003 4.63693 13.8767 4.94947 13.5691L14.4895 4.02905C14.8162 3.70106 14.9996 3.25699 14.9996 2.79405C14.9996 2.33112 14.8162 1.88704 14.4895 1.55905L13.5495 0.629051C13.2166 0.311762 12.7743 0.134766 12.3145 0.134766C11.8546 0.134766 11.4124 0.311762 11.0795 0.629051L1.53947 10.1591C1.23183 10.47 1.01115 10.8562 0.899469 11.2791L0.159469 14.0391C0.124676 14.1651 0.12393 14.2982 0.157306 14.4247C0.190682 14.5512 0.256988 14.6665 0.349469 14.7591C0.491189 14.8979 0.681055 14.9767 0.879469 14.9791L3.82947 14.2191ZM4.23947 12.8591C4.05505 13.0467 3.82368 13.1813 3.56947 13.2491L2.59947 13.5091L1.59947 12.5091L1.85947 11.5391C1.92851 11.2854 2.063 11.0544 2.24947 10.8691L2.62947 10.4991L4.61947 12.4891L4.23947 12.8591ZM5.32947 11.7791L3.33947 9.78905L10.0695 3.05905L12.0595 5.04905L5.32947 11.7791ZM13.7795 3.32905L12.7695 4.33905L10.7795 2.34905L11.7895 1.32905C11.9301 1.1886 12.1207 1.10971 12.3195 1.10971C12.5182 1.10971 12.7088 1.1886 12.8495 1.32905L13.7795 2.26905C13.9189 2.41019 13.9972 2.60062 13.9972 2.79905C13.9972 2.99748 13.9189 3.18791 13.7795 3.32905Z" fill="black"/>
</svg>
