<svg width="351" height="352" viewBox="0 0 351 352" fill="none" xmlns="http://www.w3.org/2000/svg">
<path d="M125.307 110.502C122.458 109.788 121.27 107.219 119.819 105.171C115.173 98.6118 109.936 92.4914 105.741 85.5928C100.603 77.1494 95.7058 68.6534 92.394 59.2387C90.3285 53.3699 89.1992 47.3899 89.1992 41.3397C89.1992 35.1315 90.9195 29.0988 93.7632 23.4641C98.2628 14.5409 105.15 7.8529 114.079 3.79212C123.493 -0.491003 133.499 -1.18145 143.575 1.90216C154.388 5.20813 162.445 11.9312 168.185 21.58C168.566 22.2177 168.694 23.1774 169.672 23.1832C170.503 23.1949 170.707 22.3991 171 21.8082C174.505 14.8218 179.929 9.57317 186.576 5.764C193.2 1.96653 200.473 -0.29206 208.208 0.0590162C222.409 0.696804 233.901 6.48955 242.28 18.2857C244.667 21.6502 245.89 25.5705 248.219 28.9116C247.979 29.0696 247.751 29.2451 247.493 29.3797C233.029 37.0448 226.704 49.5197 229.173 65.7921C230.139 72.1407 232.268 78.1792 234.568 84.1534C232.099 87.4593 230.08 91.0754 227.476 94.317C222.83 100.098 218.612 106.207 213.761 111.847C211.409 114.58 208.366 116.856 207.05 120.419C193.135 111.239 177.36 122.181 177.869 135.574C177.922 137.002 177.05 137.289 175.973 137.663C169.97 139.746 165.248 143.438 162.094 149.015C161.831 149.483 161.527 149.769 160.994 149.81C160.468 149.003 160.087 148.02 159.385 147.411C154.716 143.321 150.421 138.851 145.997 134.515C144.78 133.322 144.102 131.525 142.264 130.987C141.246 128.389 141.422 126.751 144.365 125.001C151.931 120.496 151.503 108.787 143.949 104.258C136.986 100.075 129.842 102.474 125.307 110.502Z" fill="#DAB3B0"/>
<path d="M160.995 149.804C161.527 149.763 161.832 149.476 162.095 149.008C165.249 143.426 169.971 139.74 175.974 137.657C177.051 137.282 177.929 136.996 177.87 135.568C177.361 122.18 193.13 111.232 207.05 120.413C212.398 124.942 215.505 130.454 214.768 137.709C214.715 138.248 214.932 138.845 215.125 139.377C219.11 150.576 214.996 159.921 203.955 164.298C202.112 165.029 202.445 166.281 202.404 167.557C202.352 169.154 203.698 168.668 204.523 168.815C206.336 169.131 208.168 169.335 209.988 169.581C213.569 171.448 217.46 172.601 220.719 175.239C228.273 181.348 235.991 187.264 243.779 193.068C248.676 196.719 253.24 200.809 258.436 204.063C261.818 207.041 265.317 209.867 269.372 212.723C269.758 209.066 270.086 205.9 270.419 202.735C271.186 202.647 272.005 201.886 272.69 202.904C272.561 203.969 272.602 205.087 272.274 206.081C269.975 213.109 272.596 219.393 275.042 225.736C275.51 226.947 276.154 227.374 277.412 227.31C279.255 227.216 281.116 227.199 282.953 227.31C286.821 227.55 289.506 230.382 289.547 234.109C289.588 237.789 286.902 240.937 283.093 240.996C280.525 241.037 279.717 241.862 279.296 244.372C274.966 269.989 270.419 295.571 266.066 321.182C263.199 338.057 252.725 348.788 236.406 351.134C234.493 351.409 232.527 351.38 230.584 351.38C189.912 351.392 149.234 351.398 108.562 351.386C89.4048 351.38 76.2453 340.017 73.0915 321.094C69.4462 299.216 65.5902 277.367 61.8395 255.507C61.7108 254.746 61.6815 253.968 61.6055 253.196C62.6587 253.74 63.5656 254.436 64.1274 255.513C65.2684 262.382 66.4211 269.252 67.5328 276.127C67.7551 277.502 68.3637 278.064 69.8323 278.052C76.8012 277.988 83.7642 278.034 90.7331 278.04C91.915 278.526 93.3486 278.719 93.4832 280.416C85.8004 280.381 78.1177 280.381 70.435 280.281C68.8727 280.258 68.3461 280.679 68.627 282.271C70.7802 294.436 72.9043 306.606 74.9756 318.783C75.1804 319.976 75.5724 320.427 76.8012 320.421C85.7478 320.398 94.7002 320.421 103.647 320.45C104.788 320.456 105.39 320.392 105.08 318.853C104.179 314.377 103.501 309.848 102.734 305.342C102.594 304.511 102.635 303.856 101.295 303.727C97.6668 303.376 96.2976 301.551 96.5258 297.835C96.713 294.798 97.8014 291.96 98.6323 289.064C99.3286 286.636 100.06 284.196 99.1998 281.645C98.9892 278.333 96.9939 275.905 95.1274 273.412C92.5879 270.024 91.09 266.344 91.7863 261.984C92.898 255.004 98.9892 249.252 106.303 248.363C114.05 247.426 121.552 251.435 124.243 258.052C125.156 260.293 125.835 262.622 126.619 264.916C127.081 268.901 128.286 272.844 130.036 276.244C132.3 280.644 137.122 277.005 140.633 278.099C140.808 278.151 141.019 278.087 141.212 278.105C142.593 278.263 143.09 277.654 143.078 276.273C142.973 265.197 142.903 254.12 142.862 243.044C142.856 241.786 142.634 241.09 141.142 241.101C131.926 241.201 122.704 241.23 113.489 241.283C109.51 238.819 106.227 235.478 102.558 232.623C101.88 232.096 101.979 231.517 102.512 230.885C106.087 226.625 108.404 221.54 111.593 217.035C112.43 215.847 112.892 213.062 114.752 214.221C116.379 215.233 114.162 216.865 113.471 218.071C111.487 221.54 109.305 224.893 106.976 228.656C112.272 228.656 116.935 228.626 121.598 228.679C122.681 228.691 123.377 228.357 124.003 227.444C127.081 222.951 130.212 218.498 133.336 214.045C133.974 213.132 134.231 212.173 134.185 211.037C133.547 195.467 140.305 184.356 154.325 177.615C157.198 176.234 159.31 174.233 159.216 170.711C158.099 163.625 158.286 156.609 160.995 149.804ZM222.129 205.233C221.199 202.307 220.262 199.382 219.332 196.456C219.748 195.473 218.56 193.683 220.245 193.507C221.895 193.332 221.503 195.122 221.69 196.169C222.211 199.06 223.077 201.816 224.358 204.466C225.845 207.521 227.828 210.441 228.39 213.817C229.145 218.369 231.614 222.096 233.539 226.104C234.013 227.093 234.569 227.883 235.915 227.872C247.787 227.743 259.665 227.661 271.537 227.579C272.625 227.573 273.14 227.38 272.795 226.075C271.215 220.119 268.746 214.911 263.556 211.008C250.104 200.897 236.915 190.423 223.527 180.225C219.531 177.182 215.693 173.818 210.672 172.331C208.841 171.787 208.408 172.027 208.297 173.964C207.881 181.237 203.896 186.234 196.933 188.551C195.798 188.931 194.382 188.937 195.289 190.973C195.886 192.302 195.143 193.665 193.815 194.437C192.703 195.087 191.544 194.941 190.509 194.227C189.362 193.437 188.724 192.243 189.274 190.944C189.947 189.353 189.321 189.124 187.934 188.68C179.485 186 175.196 179.019 176.63 170.161C176.992 167.925 176.156 167.937 174.541 168.329C169.187 169.628 165.103 172.63 161.955 177.159C153.681 189.066 145.284 200.891 136.958 212.758C133.354 217.895 129.796 223.068 126.18 228.275C127.356 228.995 128.339 228.702 129.258 228.691C140.545 228.609 151.838 228.498 163.125 228.392C167.25 228.351 167.859 227.872 167.782 223.746C167.706 219.604 168.385 215.613 169.474 211.646C170.468 208.018 170.41 204.326 169.983 200.622C169.906 199.949 169.702 199.282 169.655 198.604C169.608 197.925 169.608 197.158 170.55 197.053C171.469 196.953 171.674 197.656 171.808 198.346C172.03 199.481 172.224 200.628 172.434 201.769C172.294 204.864 172.153 207.96 172.019 211.049C171.047 213.401 170.626 215.894 170.281 218.381C169.444 224.466 169.491 224.472 175.377 223.934C175.571 223.916 175.764 223.91 175.957 223.887C192.34 221.95 208.724 219.99 225.113 218.1C226.711 217.919 227.044 217.386 226.67 215.882C225.728 212.085 224.177 208.557 222.129 205.233ZM169.368 280.328C162.358 280.328 155.349 280.445 148.345 280.27C145.811 280.205 145.302 281.054 145.413 283.412C145.951 294.892 146.297 306.384 147.397 317.835C147.607 320.017 148.298 320.538 150.393 320.52C162.756 320.421 175.12 320.374 187.484 320.544C190.146 320.579 190.913 319.725 191.135 317.261C192.165 305.804 192.592 294.324 193.031 282.832C193.113 280.673 192.358 280.258 190.403 280.287C183.388 280.392 176.378 280.328 169.368 280.328ZM169.076 241.148C161.873 241.148 154.676 241.195 147.473 241.113C145.782 241.095 145.068 241.446 145.091 243.342C145.226 254.15 145.273 264.963 145.255 275.77C145.249 277.736 145.998 278.175 147.83 278.169C162.136 278.105 176.436 278.105 190.743 278.163C192.446 278.169 193.118 277.835 193.107 275.945C193.048 265.138 193.077 254.325 193.189 243.518C193.206 241.569 192.539 241.078 190.678 241.107C183.481 241.207 176.279 241.148 169.076 241.148ZM211.842 320.462C217.389 320.462 222.936 320.339 228.478 320.52C230.619 320.591 231.286 319.824 231.667 317.864C233.931 306.185 235.037 294.365 236.154 282.54C236.342 280.545 235.564 280.293 233.902 280.299C221.836 280.352 209.771 280.381 197.706 280.293C195.652 280.275 195.149 280.919 195.084 282.92C194.71 294.693 194.628 306.483 193.136 318.192C192.902 320.011 193.347 320.538 195.207 320.497C200.748 320.386 206.295 320.468 211.842 320.462ZM217.103 241.16C217.103 241.154 217.103 241.148 217.103 241.148C210.684 241.148 204.265 241.23 197.852 241.101C195.763 241.06 195.278 241.745 195.295 243.74C195.371 254.348 195.354 264.957 195.231 275.565C195.207 277.56 195.658 278.198 197.747 278.181C209.806 278.081 221.866 278.081 233.919 278.181C235.961 278.198 236.593 277.508 236.699 275.583C237.319 264.799 237.986 254.021 238.729 243.249C238.852 241.487 238.232 241.119 236.646 241.13C230.134 241.195 223.615 241.16 217.103 241.16ZM130.135 297.133C130.381 284.845 126.906 273.295 123.243 261.78C120.85 254.249 116.999 251.136 109.088 250.621C103.068 250.229 98.4801 252.734 95.572 257.982C92.6289 263.289 93.5007 268.28 97.3859 272.821C99.5041 275.302 101.125 278.005 101.593 281.323C102.131 285.114 101.096 288.66 100.042 292.2C99.3988 294.348 98.6849 296.478 98.7727 298.754C98.8195 299.994 99.2174 301.106 100.528 301.498C101.675 301.843 102.278 300.954 102.921 300.211C105.244 297.531 106.496 294.207 108.375 291.27C109.194 289.989 109.112 287.221 111.072 287.73C112.863 288.192 111.803 290.638 111.815 292.165C111.856 297.712 111.569 303.271 113.05 308.701C113.354 309.818 113.717 311.088 115.18 311.135C116.619 311.182 117.087 310 117.503 308.882C119.018 304.804 119.17 300.509 119.457 296.244C119.586 294.301 119.591 292.352 119.697 290.41C119.732 289.725 119.861 288.965 120.762 288.929C121.628 288.894 121.873 289.596 122.02 290.281C122.166 290.942 122.248 291.621 122.347 292.294C123.155 297.578 123.342 302.955 124.571 308.18C124.858 309.415 125.057 310.919 126.625 310.989C128.199 311.059 128.509 309.526 128.959 308.373C130.387 304.74 129.866 300.889 130.135 297.133ZM259.255 241.154C254.106 241.154 248.951 241.271 243.802 241.107C241.233 241.025 240.239 241.657 240.321 244.466C240.607 254.875 239.455 265.238 238.823 275.612C238.688 277.771 239.215 278.216 241.239 278.187C250.373 278.058 259.507 277.993 268.641 278.105C270.771 278.128 271.455 277.449 271.789 275.454C273.585 264.723 275.452 254.003 277.429 243.301C277.769 241.446 277.207 241.113 275.58 241.13C270.144 241.189 264.697 241.154 259.255 241.154ZM254.721 280.328C250.443 280.328 246.154 280.533 241.895 280.258C239.033 280.071 238.284 281.13 238.144 283.786C237.535 295.454 236.002 307.016 233.638 318.461C233.322 319.982 233.475 320.515 235.177 320.503C244.218 320.421 253.258 320.433 262.298 320.444C263.41 320.444 264.047 320.24 264.264 318.941C266.335 306.77 268.448 294.605 270.618 282.452C270.929 280.708 270.414 280.27 268.717 280.305C264.053 280.398 259.384 280.334 254.721 280.328ZM169.316 322.732C162.897 322.732 156.484 322.732 150.065 322.732C149.006 322.732 147.871 322.475 148.122 324.289C149.193 331.907 150.428 339.467 153.178 346.711C153.862 348.513 154.799 349.186 156.811 349.156C165.073 349.022 173.341 349.016 181.603 349.168C183.774 349.209 184.722 348.413 185.36 346.494C187.735 339.356 189.011 331.995 190.14 324.587C190.398 322.884 189.713 322.703 188.279 322.715C181.954 322.779 175.635 322.738 169.316 322.732ZM186.676 349.098C194.283 349.098 201.65 348.864 208.993 349.168C215.511 349.437 219.958 346.43 223.27 341.304C226.629 336.114 228.396 330.228 230.18 324.365C230.596 323.007 230.098 322.703 228.805 322.703C217.343 322.738 205.874 322.732 194.412 322.715C193.317 322.715 192.627 322.884 192.457 324.218C191.416 332.609 189.625 340.842 186.676 349.098ZM151.604 349.075C150.943 347.191 150.34 345.669 149.872 344.101C148.029 337.934 146.929 331.62 146.104 325.242C145.957 324.119 146.221 322.674 144.184 322.691C132.71 322.756 121.236 322.738 109.761 322.715C108.55 322.715 108.31 323.054 108.626 324.259C110.417 331.17 112.652 337.864 117.169 343.574C119.638 346.693 122.716 348.928 126.73 349.022C134.893 349.203 143.061 349.075 151.604 349.075ZM197.776 163.186C207.706 163.356 215.681 154.426 214.224 144.819C214.043 143.637 214.154 142.671 212.328 142.747C210.719 142.812 209.947 141.208 211.053 140.126C213.323 137.891 212.785 135.41 212.393 132.853C211.995 130.267 209.789 128.927 207.981 127.733C206.84 126.978 205.892 129.272 204.786 130.109C201.691 132.461 199.754 136.071 196.307 138.061C194.259 139.242 192.545 139.997 190.854 137.154C189.292 134.532 185.962 134 183.341 135.258C180.55 136.598 178.999 139.517 179.713 142.496C180.421 145.451 182.352 147.165 185.447 147.458C186.196 147.528 187.121 147.469 187.209 148.546C187.285 149.47 186.571 149.669 185.851 149.664C184.611 149.652 184.804 150.535 184.786 151.278C184.64 157.311 184.412 163.344 184.388 169.376C184.371 173.32 186.969 176.369 190.62 177.141C196.056 178.288 200.011 174.303 200.239 167.656C200.298 165.93 199.994 165.31 198.08 165.339C194.213 165.403 190.591 164.268 187.378 162.057C186.547 161.483 185.219 160.799 186.103 159.576C186.986 158.353 187.782 159.669 188.49 160.167C191.281 162.133 194.371 163.145 197.776 163.186ZM121.306 303.283C120.463 306.425 120.089 309.046 118.696 311.305C117.813 312.738 116.648 313.593 114.875 313.493C113.19 313.399 112.266 312.375 111.593 310.989C110.51 308.748 110.177 306.337 110.025 303.903C109.832 300.889 109.715 297.87 109.533 294.248C108.146 296.466 107.286 298.215 106.069 299.672C104.835 301.153 104.431 302.604 104.788 304.476C105.677 309.157 106.461 313.868 107.269 318.566C107.497 319.883 108.018 320.515 109.557 320.509C120.85 320.439 132.137 320.45 143.43 320.497C144.957 320.503 145.425 320.099 145.255 318.502C143.98 306.483 143.371 294.424 143.231 282.341C143.213 280.785 142.681 280.275 141.2 280.316C138.573 280.381 135.94 280.451 133.319 280.293C131.171 280.164 130.709 280.89 131.072 282.955C132.236 289.591 132.681 296.29 132.242 303.031C132.084 305.471 131.756 307.893 130.691 310.123C129.825 311.931 128.649 313.563 126.315 313.358C124.138 313.165 123.196 311.515 122.681 309.672C122.154 307.8 121.85 305.875 121.306 303.283ZM219.162 349.028C224.633 349.028 229.589 349.203 234.534 348.993C248.091 348.413 259.858 338.589 263.064 325.494C263.585 323.358 263.363 322.627 260.905 322.674C252.556 322.826 244.2 322.82 235.85 322.674C233.533 322.633 232.614 323.189 231.953 325.599C229.607 334.218 226.752 342.673 219.162 349.028ZM119.878 349.151C116.256 346.301 114.056 343.393 112.236 340.157C109.598 335.453 108.076 330.315 106.66 325.172C106.11 323.177 105.262 322.65 103.266 322.68C94.905 322.802 86.5377 322.785 78.1762 322.691C76.1868 322.668 75.7246 323.101 76.181 325.131C78.7614 336.646 88.533 346.219 100.113 348.419C106.379 349.613 112.699 348.876 119.878 349.151ZM200.514 228.328C200.514 228.205 200.514 228.076 200.514 227.953C208.776 227.953 217.038 228 225.295 227.924C227.378 227.907 230.572 228.86 231.28 227.421C232.094 225.753 229.578 223.635 228.7 221.622C228.185 220.446 227.524 219.826 226.055 220.007C207.747 222.307 189.426 224.548 171.112 226.824C170.509 226.9 169.45 226.654 169.497 227.585C169.555 228.708 170.638 228.322 171.358 228.328C181.082 228.334 190.801 228.328 200.514 228.328ZM192.51 187.153C199.824 187.135 206.272 180.693 206.331 173.338C206.342 172.244 206.389 171.132 204.827 171.038C203.516 170.962 202.346 170.512 201.655 172.466C199.883 177.457 195.792 180.02 191.199 179.435C186.167 178.797 182.762 175.298 182.065 169.967C181.937 168.996 182.136 168.013 180.69 167.884C179.064 167.744 179.087 168.932 178.847 169.938C176.735 178.867 183.335 187.176 192.51 187.153Z" fill="#B76D68"/>
<path d="M64.1388 255.536C63.5771 254.46 62.6643 253.763 61.6169 253.219C57.4274 250.376 54.2736 246.718 52.4304 241.926C49.2942 233.77 51.0144 226.567 56.462 220.019C59.0014 216.971 61.535 213.916 64.0745 210.862C65.3032 210.37 65.7772 209.423 65.7011 208.147C68.5507 207.433 69.5161 204.654 71.1896 202.781C77.4387 195.766 83.2724 188.376 89.4689 181.313C91.8387 178.616 95.0042 176.661 98.5091 175.749C101.669 174.923 104.881 174.022 108.228 174.221C108.304 174.801 108.374 175.38 108.462 175.953C109.451 182.618 114.53 187.082 120.75 186.772C127.268 186.445 132.136 181.255 132.306 174.473C132.335 173.408 132.4 172.343 132.452 171.278C133.886 171.097 135.325 170.775 136.759 170.763C144.248 170.716 151.738 170.752 159.234 170.757C159.327 174.28 157.221 176.281 154.342 177.662C140.322 184.403 133.564 195.514 134.202 211.084C134.249 212.219 133.991 213.179 133.353 214.092C130.229 218.55 127.098 223.003 124.021 227.491C123.4 228.398 122.704 228.738 121.616 228.726C116.952 228.679 112.295 228.702 106.993 228.702C109.322 224.94 111.499 221.587 113.488 218.118C114.179 216.912 116.396 215.28 114.77 214.267C112.909 213.109 112.453 215.894 111.61 217.082C108.421 221.587 106.104 226.672 102.529 230.932C102.002 231.564 101.897 232.143 102.576 232.67C106.245 235.525 109.527 238.866 113.506 241.329C113.775 242.868 115.185 243.407 116.209 244.185C121.569 248.269 125.87 253.096 127.327 259.884C127.684 261.54 128.421 263.488 126.63 264.957C125.846 262.669 125.162 260.334 124.255 258.093C121.563 251.476 114.062 247.467 106.315 248.404C99.0006 249.287 92.9095 255.039 91.7977 262.025C91.1073 266.385 92.6052 270.065 95.1388 273.453C97.0054 275.946 99.0006 278.374 99.2113 281.686C97.1458 282.007 95.4431 280.662 93.4946 280.451C93.36 278.754 91.9265 278.561 90.7445 278.075C90.7036 277.192 90.0716 276.73 89.4689 276.226C83.957 271.662 78.4159 267.128 72.9567 262.505C70.0954 260.065 67.3921 257.461 64.1388 255.536Z" fill="#DAB3B0"/>
<path d="M258.441 204.069C253.251 200.816 248.681 196.726 243.783 193.074C235.995 187.264 228.277 181.354 220.723 175.246C217.464 172.607 213.573 171.454 209.992 169.587C210.021 168.92 210.326 168.517 211.022 168.417C215.124 167.826 219.225 167.206 223.333 166.633C231.449 165.503 239.541 164.158 247.692 163.356C257.06 162.437 266.299 159.488 275.866 161.337C276.369 161.905 277.036 162.139 277.756 162.25C277.756 162.636 277.762 163.028 277.762 163.414C274.409 163.923 271.056 164.415 267.709 164.942C264.59 165.433 262.033 166.908 260.19 169.488C256.182 175.099 256.638 185.099 261.132 190.904C265.474 196.515 272.835 198.335 280.096 195.59C282.179 194.806 284.274 194.052 286.363 193.279C284.736 197.516 280.986 199.318 277.282 201.126C275.819 201.84 274.239 202.319 272.712 202.905C272.027 201.881 271.208 202.647 270.436 202.735C266.474 203.572 262.367 203.004 258.441 204.069Z" fill="#DAB3B0"/>
<path d="M277.749 162.25C277.024 162.139 276.362 161.905 275.859 161.337C276.327 157.674 276.702 154 277.304 150.36C277.574 148.745 277.094 147.715 276.064 146.492C266.386 134.96 257.287 122.994 249.09 110.343C243.642 101.941 239.02 93.0996 234.573 84.1472C232.273 78.173 230.143 72.1345 229.178 65.7859C226.709 49.5135 233.04 37.0328 247.498 29.3735C247.75 29.2389 247.984 29.0634 248.224 28.9054C261.459 24.1132 273.466 26.0149 283.969 35.6343C286.859 38.2791 288.954 41.5851 290.71 45.0783C291.283 46.2251 291.646 46.939 292.816 45.4879C304.817 30.6491 325.021 31.872 335.01 38.4839C349.175 47.8576 354.155 64.2002 347.385 80.5486C344.717 86.985 340.949 92.7778 336.595 98.1609C325.46 111.923 312.371 123.655 298.463 134.509C292.717 138.991 286.795 143.257 280.885 147.522C279.873 148.248 279.551 149.044 279.405 150.149C278.89 154.181 278.311 158.218 277.749 162.25ZM230.886 61.1166C231.003 67.5647 233.391 75.341 236.708 82.8774C246.772 105.738 261.553 125.498 277.293 144.626C278.475 146.065 279.311 146.048 280.809 144.983C294.776 135.036 308.281 124.527 320.51 112.473C329.264 103.848 337.461 94.7613 343.383 83.8429C347.204 76.798 349.047 69.4371 347.876 61.3799C346.197 49.7944 336.864 39.619 325.057 36.7168C313.214 33.8087 300.271 38.478 293.448 48.0917C292.857 48.9226 292.547 50.3093 291.271 50.1981C289.838 50.0694 289.797 48.5422 289.37 47.5241C283.84 34.23 269.528 26.2957 255.824 28.9639C241.073 31.8369 230.892 44.1947 230.886 61.1166Z" fill="#B76D68"/>
<path d="M132.44 171.267C132.394 172.332 132.323 173.397 132.294 174.461C132.124 181.243 127.256 186.433 120.738 186.761C114.512 187.077 109.433 182.606 108.45 175.942C108.362 175.363 108.298 174.789 108.216 174.21C108.281 167.317 108.316 160.424 108.421 153.531C108.439 152.291 107.976 151.963 106.794 151.729C101.364 150.659 97.8361 147.165 97.2919 142.537C96.736 137.821 99.375 133.555 104.296 131.285C104.998 130.963 105.706 130.811 105.899 129.84C107.69 120.718 113.482 115.68 122.429 114.328C125.15 113.918 125.308 112.479 125.302 110.484C129.837 102.456 136.987 100.057 143.95 104.229C151.504 108.758 151.931 120.472 144.365 124.971C141.428 126.721 141.252 128.359 142.265 130.957C142.194 133.28 142.212 135.632 141.451 137.85C141.071 138.968 141.592 139.646 142.107 140.489C148.262 150.559 144.98 162.232 134.383 167.493C132.528 168.435 131.926 169.418 132.44 171.267ZM110.598 163.607C110.592 163.607 110.586 163.607 110.58 163.607C110.58 167.498 110.504 171.39 110.598 175.275C110.697 179.371 113.161 182.583 117.151 183.993C121.06 185.368 124.377 184.245 127.285 181.477C130.41 178.505 130.088 174.66 130.088 170.857C130.088 169.459 129.702 169.037 128.251 169.119C123.833 169.371 119.825 168.125 116.238 165.491C111.54 162.039 110.457 157.867 113.307 152.823C115.495 148.944 116.297 144.866 116.028 140.495C115.718 135.445 110.463 131.724 105.612 133.14C101.739 134.269 99.0707 138.324 99.5622 142.338C100.06 146.405 103.442 149.588 107.772 149.512C110.217 149.471 110.732 150.302 110.633 152.519C110.481 156.211 110.598 159.915 110.598 163.607ZM115.928 134.135C115.928 132.321 115.84 130.975 115.946 129.652C116.151 127.019 117.49 125.065 120.2 124.925C125.22 124.667 130.27 124.018 135.29 124.96C140.913 126.013 146.519 122.321 147.525 116.815C148.555 111.168 144.74 105.61 139.216 104.714C133.201 103.737 127.619 107.675 127.11 113.632C126.899 116.095 126.15 116.628 123.798 116.587C116.964 116.452 110.44 121.49 108.561 128.002C108.128 129.512 107.795 130.793 110.141 131.033C112.189 131.244 113.88 132.514 115.928 134.135ZM118.631 142.87C117.994 146.68 117.45 150.103 115.601 153.221C112.868 157.826 113.822 161.595 118.397 164.304C119.726 165.088 121.183 165.714 122.657 166.17C128.614 168.019 133.892 166.469 138.245 162.279C142.218 158.458 143.453 153.502 142.715 148.078C142.633 147.452 142.733 146.399 141.486 146.808C137.976 147.961 134.36 147.083 130.802 147.341C126.168 147.674 121.569 147.827 118.631 142.87ZM127.268 127.008C125.372 127.008 123.33 126.978 121.288 127.014C119.17 127.049 118.052 128.067 118.146 130.29C118.222 132.04 118.21 133.795 118.239 135.545C118.345 141.735 123.359 146.059 129.404 145.176C133.874 144.521 134.161 144.029 132.499 139.869C132.353 139.506 132.206 139.149 132.054 138.786C131.721 137.967 131.247 136.99 132.405 136.557C133.423 136.177 133.652 137.224 133.938 137.903C134.734 139.781 135.782 141.618 136.168 143.584C136.536 145.486 137.601 145.305 138.877 145.234C140.1 145.17 141.13 144.55 140.995 143.362C140.866 142.209 140.416 140.846 138.66 140.945C137.671 141.004 136.963 140.477 136.858 139.436C136.753 138.424 137.355 137.903 138.233 137.464C140.264 136.452 140.808 128.816 138.959 127.593C138.672 127.4 138.221 127.441 137.841 127.411C134.377 127.113 130.919 126.469 127.268 127.008Z" fill="#B76D68"/>
<path d="M65.6926 208.141C65.7687 209.417 65.2889 210.365 64.066 210.856C62.609 203.805 61.117 196.755 59.7185 189.692C59.3908 188.048 58.6477 186.989 57.1791 186.099C44.4175 178.387 32.1357 169.985 21.0183 160.009C13.6106 153.362 6.54224 146.363 2.36444 137.072C-2.60914 126.019 0.462778 113.28 9.70777 106.294C19.8012 98.6639 32.2585 98.898 41.8897 107.096C43.7738 108.699 44.2946 108.839 45.5643 106.399C53.879 90.4137 72.7551 86.8678 85.7917 98.9623C93.8782 106.47 95.0952 116.118 92.7781 126.44C89.361 141.682 81.9416 155.14 73.7908 168.224C70.1923 174.005 66.2427 179.563 62.4101 185.198C61.784 186.117 61.3042 186.919 61.5617 188.13C62.9835 194.788 64.3235 201.471 65.6926 208.141ZM91.4967 120.396C91.7893 107.722 85.1657 98.2836 75.6047 95.2995C63.1123 91.4025 50.6608 97.7043 46.3835 110.091C45.3127 113.193 44.8914 113.327 42.9371 111.203C34.6166 102.14 23.0194 100.46 12.5749 106.803C3.63416 112.233 -0.245225 124.123 3.7863 134.854C6.61831 142.379 11.9664 148.253 17.6011 153.8C29.7425 165.737 43.7972 175.134 58.1211 184.174C59.935 185.321 60.4265 184.233 61.2398 183.092C69.6189 171.249 77.4595 159.072 83.6151 145.907C87.7461 137.066 91.1515 127.967 91.4967 120.396Z" fill="#B76D68"/>
<path d="M286.347 193.291C284.258 194.058 282.163 194.813 280.08 195.603C272.819 198.341 265.458 196.527 261.116 190.916C256.628 185.111 256.166 175.112 260.174 169.5C262.017 166.92 264.574 165.439 267.693 164.954C271.04 164.427 274.393 163.936 277.746 163.427C284.182 163.86 289.67 161.683 294.621 157.64C297.113 155.603 300.01 154.111 303.357 153.947C304.931 153.866 306.586 153.918 307.546 155.422C308.576 157.037 307.482 158.424 306.662 159.705C304.304 163.415 304.275 163.397 308.599 164.158C314.62 165.217 320.758 165.679 326.58 167.756C328.084 168.295 329.459 168.974 330.424 170.267C332.285 172.771 331.249 176.522 328.365 177.914C326.469 178.827 324.427 178.868 321.917 178.973C323.356 179.898 324.48 180.571 325.539 181.32C327.3 182.566 328.722 184.093 327.955 186.445C327.23 188.663 325.182 189.067 323.21 189.16C319.085 189.348 315.118 188.183 311.104 187.469C310.162 187.3 309.26 186.855 308.09 187.124C308.535 188.318 309.588 188.844 310.437 189.511C311.987 190.734 313.269 192.162 314.31 193.83C315.375 195.538 315.72 197.27 314.415 198.991C313.134 200.682 311.314 200.98 309.418 200.494C306.955 199.862 304.732 198.645 302.602 197.253C299.582 195.275 296.475 193.479 292.877 192.724C290.648 192.238 288.459 192.256 286.347 193.291ZM320.436 176.656C322.66 176.621 324.901 176.867 327.072 176.071C328.33 175.615 328.921 174.778 329.049 173.473C329.184 172.139 328.739 171.185 327.487 170.67C326.141 170.12 324.831 169.424 323.432 169.073C316.92 167.417 310.238 166.674 303.632 165.527C302.801 165.381 301.911 165.188 301.262 166.112C298.523 170.009 294.556 172.917 292.339 177.236C291.338 179.184 289.507 180.108 287.64 180.974C287.055 181.244 286.505 181.261 286.125 180.635C285.797 180.097 286.078 179.588 286.481 179.389C291.28 176.996 292.836 171.706 296.464 168.236C299.331 165.492 301.73 162.25 304.269 159.179C304.913 158.4 306.112 157.47 305.387 156.428C304.749 155.516 303.374 156.007 302.356 156.194C299.079 156.791 296.522 158.839 293.989 160.764C289.986 163.801 285.662 165.521 280.566 165.492C276.177 165.463 271.871 166.417 267.582 167.277C265.429 167.71 263.585 168.675 262.187 170.466C255.833 178.634 261.245 192.876 271.379 194.561C274.551 195.088 277.605 194.643 280.425 193.081C288.038 188.856 295.247 189.441 302.286 194.52C304.31 195.983 306.692 196.978 308.985 198.037C310.255 198.622 311.7 198.797 312.678 197.411C313.561 196.153 312.549 195.199 311.905 194.286C309.623 191.039 306.265 188.973 303.275 186.498C302.496 185.849 301.104 185.357 301.712 184.058C302.327 182.747 303.637 183.549 304.579 183.748C309.717 184.819 314.761 186.381 320.009 186.843C322.034 187.019 325.082 188.037 325.708 185.632C326.375 183.069 323.21 182.273 321.25 181.478C318.014 180.167 314.62 179.248 311.308 178.131C310.606 177.891 309.652 177.721 309.851 176.65C310.05 175.562 310.963 175.779 311.724 175.837C314.638 176.071 317.493 176.797 320.436 176.656Z" fill="#B76D68"/>
<path d="M172.438 201.781C172.233 200.64 172.04 199.499 171.812 198.358C171.677 197.667 171.472 196.965 170.554 197.065C169.612 197.17 169.612 197.937 169.658 198.615C169.705 199.294 169.91 199.955 169.986 200.634C170.413 204.332 170.472 208.03 169.477 211.658C168.389 215.619 167.71 219.615 167.786 223.758C167.862 227.883 167.259 228.369 163.128 228.404C151.841 228.509 140.548 228.626 129.261 228.702C128.337 228.708 127.354 229.007 126.184 228.287C129.8 223.079 133.357 217.907 136.962 212.77C145.288 200.897 153.685 189.078 161.958 177.17C165.106 172.642 169.19 169.64 174.544 168.341C176.159 167.949 176.996 167.937 176.633 170.172C175.2 179.025 179.489 186.006 187.938 188.692C189.325 189.13 189.951 189.359 189.278 190.956C188.728 192.255 189.366 193.449 190.512 194.239C191.548 194.952 192.707 195.099 193.818 194.449C195.141 193.677 195.884 192.313 195.293 190.985C194.38 188.949 195.796 188.943 196.937 188.563C203.9 186.24 207.891 181.243 208.3 173.976C208.411 172.039 208.844 171.799 210.676 172.343C215.696 173.829 219.535 177.194 223.531 180.236C236.919 190.435 250.107 200.903 263.56 211.02C268.75 214.923 271.225 220.13 272.799 226.087C273.144 227.392 272.635 227.585 271.541 227.591C259.668 227.667 247.79 227.749 235.918 227.883C234.567 227.901 234.017 227.105 233.543 226.116C231.617 222.114 229.148 218.381 228.393 213.829C227.832 210.452 225.848 207.538 224.362 204.478C223.075 201.828 222.209 199.072 221.694 196.181C221.507 195.128 221.899 193.343 220.248 193.519C218.563 193.694 219.745 195.485 219.336 196.468C212.291 196.86 205.304 197.667 198.324 198.709C189.728 199.979 181.068 200.774 172.438 201.781Z" fill="#FDFEFE"/>
<path d="M169.374 280.328C176.383 280.328 183.393 280.393 190.403 280.288C192.357 280.258 193.112 280.674 193.03 282.833C192.597 294.319 192.17 305.805 191.134 317.262C190.912 319.725 190.146 320.579 187.483 320.544C175.119 320.369 162.756 320.421 150.392 320.521C148.297 320.538 147.607 320.012 147.396 317.835C146.296 306.384 145.957 294.892 145.413 283.412C145.301 281.054 145.805 280.206 148.344 280.27C155.354 280.446 162.364 280.328 169.374 280.328Z" fill="#FDFEFE"/>
<path d="M169.079 241.148C176.282 241.148 183.479 241.207 190.681 241.107C192.548 241.084 193.215 241.569 193.192 243.518C193.086 254.325 193.051 265.138 193.11 275.946C193.121 277.841 192.443 278.169 190.746 278.163C176.44 278.105 162.139 278.105 147.833 278.169C146.001 278.175 145.252 277.736 145.258 275.77C145.276 264.963 145.229 254.15 145.094 243.342C145.071 241.447 145.785 241.096 147.476 241.113C154.679 241.195 161.882 241.148 169.079 241.148Z" fill="#FDFEFE"/>
<path d="M211.846 320.462C206.299 320.462 200.752 320.386 195.211 320.503C193.35 320.544 192.905 320.018 193.139 318.198C194.637 306.489 194.719 294.699 195.088 282.926C195.152 280.925 195.655 280.282 197.709 280.299C209.774 280.387 221.84 280.358 233.905 280.305C235.567 280.299 236.345 280.551 236.158 282.546C235.04 294.371 233.934 306.185 231.67 317.87C231.289 319.824 230.628 320.597 228.481 320.527C222.94 320.339 217.387 320.462 211.846 320.462Z" fill="#FDFEFE"/>
<path d="M217.107 241.16C223.62 241.16 230.138 241.195 236.65 241.137C238.236 241.119 238.856 241.494 238.734 243.255C237.985 254.027 237.317 264.811 236.703 275.589C236.592 277.508 235.966 278.199 233.924 278.187C221.864 278.088 209.805 278.088 197.751 278.187C195.668 278.205 195.212 277.567 195.235 275.572C195.358 264.963 195.376 254.355 195.3 243.747C195.288 241.751 195.768 241.061 197.857 241.108C204.27 241.236 210.694 241.154 217.107 241.154C217.107 241.149 217.107 241.154 217.107 241.16Z" fill="#FDFEFE"/>
<path d="M130.136 297.133C129.867 300.884 130.388 304.74 128.966 308.373C128.515 309.526 128.2 311.059 126.631 310.989C125.063 310.919 124.864 309.409 124.578 308.18C123.349 302.955 123.162 297.584 122.354 292.294C122.249 291.621 122.167 290.948 122.026 290.281C121.874 289.597 121.634 288.894 120.768 288.93C119.867 288.965 119.739 289.731 119.703 290.41C119.598 292.353 119.586 294.301 119.464 296.244C119.183 300.509 119.025 304.804 117.509 308.882C117.094 310 116.626 311.182 115.186 311.135C113.723 311.088 113.361 309.813 113.056 308.701C111.582 303.271 111.869 297.712 111.822 292.165C111.81 290.632 112.863 288.192 111.079 287.73C109.124 287.221 109.2 289.989 108.381 291.27C106.503 294.207 105.245 297.537 102.928 300.211C102.284 300.948 101.682 301.843 100.535 301.498C99.2241 301.106 98.8262 299.994 98.7794 298.754C98.6916 296.472 99.4055 294.348 100.049 292.2C101.108 288.655 102.144 285.115 101.6 281.323C101.126 278.005 99.5108 275.302 97.3926 272.821C93.5074 268.28 92.6297 263.289 95.5787 257.982C98.4927 252.734 103.08 250.235 109.095 250.621C117.012 251.136 120.856 254.249 123.249 261.78C126.906 273.295 130.388 284.845 130.136 297.133Z" fill="#FDFEFE"/>
<path d="M259.257 241.154C264.699 241.154 270.14 241.189 275.582 241.131C277.209 241.113 277.77 241.447 277.431 243.302C275.453 254.004 273.587 264.723 271.79 275.454C271.457 277.444 270.772 278.128 268.642 278.105C259.509 277.994 250.375 278.058 241.241 278.187C239.216 278.216 238.69 277.771 238.824 275.612C239.456 265.238 240.609 254.875 240.322 244.466C240.246 241.657 241.241 241.025 243.804 241.107C248.953 241.271 254.108 241.154 259.257 241.154Z" fill="#FDFEFE"/>
<path d="M254.722 280.328C259.386 280.328 264.055 280.393 268.719 280.293C270.416 280.258 270.93 280.703 270.62 282.441C268.449 294.594 266.337 306.759 264.266 318.929C264.043 320.222 263.412 320.433 262.3 320.433C253.26 320.421 244.219 320.41 235.179 320.492C233.476 320.509 233.324 319.971 233.64 318.449C236.004 307.004 237.537 295.442 238.146 283.775C238.286 281.118 239.035 280.059 241.896 280.247C246.15 280.533 250.445 280.328 254.722 280.328Z" fill="#FDFEFE"/>
<path d="M93.4943 280.44C95.4427 280.65 97.1513 281.996 99.2109 281.674C100.071 284.225 99.3397 286.665 98.6434 289.094C97.8125 291.99 96.7242 294.828 96.5369 297.865C96.3087 301.58 97.6779 303.406 101.306 303.757C102.646 303.886 102.605 304.541 102.745 305.372C103.512 309.877 104.19 314.4 105.091 318.882C105.402 320.421 104.799 320.48 103.658 320.48C94.7113 320.451 85.7589 320.421 76.8123 320.451C75.5777 320.456 75.1857 320.006 74.9867 318.812C72.9154 306.636 70.7914 294.465 68.6381 282.3C68.3572 280.709 68.8897 280.288 70.4461 280.311C78.1288 280.405 85.8116 280.405 93.4943 280.44Z" fill="#FDFEFE"/>
<path d="M169.32 322.738C175.64 322.744 181.959 322.779 188.279 322.715C189.712 322.697 190.403 322.885 190.139 324.587C189.016 331.995 187.734 339.356 185.359 346.494C184.721 348.408 183.773 349.209 181.602 349.168C173.34 349.016 165.072 349.028 156.81 349.157C154.798 349.192 153.861 348.513 153.177 346.711C150.427 339.467 149.192 331.901 148.121 324.289C147.87 322.475 149.005 322.732 150.064 322.732C156.489 322.732 162.902 322.732 169.32 322.738Z" fill="#FDFEFE"/>
<path d="M186.68 349.098C189.635 340.836 191.419 332.609 192.467 324.219C192.636 322.885 193.321 322.715 194.421 322.715C205.884 322.732 217.352 322.738 228.815 322.703C230.102 322.697 230.599 323.007 230.19 324.365C228.405 330.228 226.638 336.114 223.279 341.304C219.968 346.424 215.515 349.438 209.002 349.168C201.653 348.864 194.286 349.098 186.68 349.098Z" fill="#FDFEFE"/>
<path d="M151.608 349.075C143.066 349.075 134.897 349.204 126.735 349.022C122.721 348.934 119.643 346.699 117.174 343.575C112.657 337.87 110.421 331.176 108.631 324.26C108.321 323.054 108.561 322.715 109.766 322.715C121.24 322.738 132.715 322.762 144.189 322.691C146.225 322.68 145.962 324.125 146.108 325.243C146.933 331.615 148.033 337.934 149.876 344.101C150.345 345.669 150.947 347.191 151.608 349.075Z" fill="#FDFEFE"/>
<path d="M197.779 163.186C194.373 163.145 191.29 162.133 188.493 160.173C187.779 159.675 186.983 158.353 186.106 159.582C185.222 160.805 186.55 161.489 187.381 162.063C190.599 164.274 194.215 165.409 198.083 165.345C199.991 165.31 200.301 165.93 200.242 167.662C200.02 174.309 196.059 178.294 190.623 177.147C186.972 176.375 184.379 173.326 184.391 169.382C184.415 163.35 184.637 157.317 184.789 151.285C184.807 150.541 184.613 149.658 185.854 149.67C186.574 149.675 187.288 149.476 187.211 148.552C187.124 147.475 186.199 147.534 185.45 147.464C182.355 147.171 180.43 145.457 179.716 142.502C179.002 139.523 180.553 136.604 183.344 135.264C185.965 134.006 189.294 134.538 190.857 137.16C192.548 140.003 194.262 139.248 196.31 138.067C199.757 136.077 201.693 132.473 204.789 130.115C205.889 129.278 206.837 126.984 207.983 127.739C209.791 128.933 211.997 130.273 212.395 132.859C212.787 135.416 213.331 137.897 211.055 140.132C209.949 141.22 210.722 142.818 212.331 142.753C214.151 142.677 214.045 143.643 214.227 144.825C215.684 154.427 207.708 163.35 197.779 163.186ZM207.545 139.681C206.632 139.992 206.211 140.477 206.591 141.261C206.971 142.045 207.486 142.759 207.954 143.502C209.136 145.369 211.184 147.259 207.662 148.909C207.141 149.155 206.889 149.833 207.334 150.419C207.744 150.957 208.364 151.01 208.896 150.647C210.02 149.874 211.102 149.043 212.185 148.224C212.875 147.704 212.776 147.089 212.36 146.434C211.102 144.468 209.879 142.478 208.592 140.53C208.346 140.155 207.872 139.945 207.545 139.681ZM187.053 141.472C185.409 142.56 183.613 141.782 183.11 143.514C182.958 144.029 183.379 144.497 183.911 144.497C186.035 144.509 188.13 144.228 190.079 143.368C190.675 143.104 190.523 142.379 190.166 141.841C190.114 141.759 190.055 141.683 189.985 141.618C188.516 140.22 187.059 138.81 185.579 137.429C185.041 136.926 184.379 136.662 183.812 137.335C183.238 138.014 183.66 138.605 184.198 139.079C185.046 139.822 185.936 140.536 187.053 141.472ZM206.076 155.895C206.901 155.767 207.966 155.673 208.849 154.965C209.528 154.415 210.447 153.818 209.815 152.858C209.253 152.004 208.475 152.525 207.82 153.046C206.608 154.011 205.368 154.081 204.11 153.081C203.542 152.63 202.899 151.805 202.156 152.701C201.354 153.66 202.261 154.286 202.858 154.871C203.677 155.661 204.771 155.749 206.076 155.895ZM202.641 143.333C203.776 143.157 204.367 142.473 204.315 141.367C204.256 140.22 203.536 139.652 202.401 139.74C201.366 139.822 200.862 140.536 200.886 141.49C200.915 142.554 201.471 143.286 202.641 143.333Z" fill="#FDFEFE"/>
<path d="M121.309 303.283C121.853 305.875 122.157 307.8 122.678 309.667C123.193 311.51 124.135 313.16 126.312 313.353C128.646 313.558 129.822 311.925 130.688 310.117C131.753 307.894 132.081 305.471 132.239 303.025C132.678 296.285 132.233 289.585 131.069 282.95C130.706 280.878 131.168 280.159 133.316 280.287C135.937 280.44 138.57 280.375 141.197 280.311C142.678 280.276 143.21 280.785 143.228 282.335C143.368 294.418 143.977 306.478 145.252 318.496C145.422 320.094 144.954 320.497 143.427 320.491C132.134 320.445 120.847 320.427 109.554 320.503C108.015 320.515 107.494 319.877 107.266 318.56C106.458 313.862 105.68 309.158 104.785 304.471C104.428 302.598 104.832 301.147 106.066 299.667C107.283 298.21 108.143 296.454 109.53 294.243C109.712 297.865 109.829 300.884 110.022 303.897C110.18 306.331 110.507 308.748 111.59 310.983C112.263 312.376 113.187 313.394 114.872 313.487C116.64 313.587 117.81 312.733 118.693 311.299C120.092 309.046 120.466 306.425 121.309 303.283Z" fill="#FDFEFE"/>
<path d="M219.168 349.028C226.763 342.679 229.612 334.224 231.965 325.6C232.62 323.195 233.545 322.639 235.862 322.674C244.211 322.814 252.567 322.826 260.917 322.674C263.374 322.627 263.597 323.359 263.076 325.494C259.864 338.595 248.102 348.42 234.545 348.993C229.595 349.204 224.639 349.028 219.168 349.028Z" fill="#FDFEFE"/>
<path d="M119.882 349.151C112.702 348.876 106.383 349.613 100.116 348.42C88.5365 346.219 78.7649 336.641 76.1844 325.132C75.728 323.101 76.1961 322.668 78.1797 322.692C86.5412 322.785 94.9085 322.803 103.27 322.68C105.265 322.651 106.114 323.177 106.664 325.172C108.08 330.316 109.601 335.447 112.24 340.158C114.054 343.393 116.26 346.301 119.882 349.151Z" fill="#FDFEFE"/>
<path d="M222.134 205.233C224.182 208.557 225.733 212.085 226.681 215.894C227.055 217.404 226.728 217.931 225.124 218.112C208.735 219.996 192.352 221.956 175.968 223.899C175.775 223.922 175.582 223.928 175.389 223.946C169.508 224.49 169.456 224.484 170.292 218.393C170.638 215.906 171.059 213.413 172.03 211.061C173.663 210.874 175.289 210.687 176.922 210.5C184.891 209.593 192.866 208.703 200.836 207.773C207.933 206.948 215.031 206.082 222.134 205.233Z" fill="#FDFEFE"/>
<path d="M126.636 264.945C128.427 263.477 127.689 261.528 127.332 259.872C125.875 253.085 121.569 248.258 116.215 244.173C115.191 243.395 113.781 242.857 113.512 241.318C122.727 241.265 131.949 241.236 141.165 241.137C142.657 241.119 142.879 241.815 142.885 243.079C142.926 254.156 143.002 265.232 143.102 276.309C143.113 277.689 142.616 278.298 141.235 278.14C141.042 278.117 140.831 278.187 140.656 278.134C137.145 277.04 132.324 280.685 130.059 276.279C128.304 272.874 127.092 268.93 126.636 264.945Z" fill="#FDFEFE"/>
<path d="M222.134 205.233C215.03 206.082 207.933 206.948 200.829 207.779C192.86 208.709 184.89 209.598 176.915 210.505C175.283 210.693 173.656 210.88 172.023 211.067C172.164 207.972 172.304 204.877 172.439 201.787C181.07 200.781 189.729 199.985 198.319 198.703C205.305 197.662 212.292 196.854 219.331 196.462C220.267 199.382 221.197 202.308 222.134 205.233Z" fill="#DAB3B0"/>
<path d="M200.519 228.329C190.8 228.329 181.081 228.329 171.362 228.323C170.642 228.323 169.56 228.703 169.502 227.58C169.455 226.649 170.514 226.889 171.116 226.819C189.431 224.543 207.751 222.308 226.06 220.002C227.528 219.815 228.19 220.435 228.705 221.617C229.582 223.63 232.098 225.748 231.285 227.416C230.583 228.855 227.382 227.901 225.299 227.919C217.037 227.995 208.775 227.948 200.519 227.948C200.519 228.083 200.519 228.206 200.519 228.329Z" fill="#FDFEFE"/>
<path d="M64.1328 255.537C67.3803 257.462 70.0894 260.071 72.9448 262.494C78.404 267.122 83.9452 271.651 89.4571 276.215C90.0598 276.712 90.6975 277.175 90.7327 278.064C83.7638 278.058 76.7949 278.011 69.8319 278.076C68.3633 278.087 67.7547 277.532 67.5324 276.151C66.4265 269.275 65.2738 262.406 64.1328 255.537Z" fill="#FDFEFE"/>
<path d="M192.514 187.153C183.345 187.176 176.744 178.862 178.851 169.944C179.091 168.938 179.062 167.744 180.694 167.891C182.139 168.019 181.946 169.002 182.069 169.974C182.765 175.304 186.171 178.797 191.203 179.441C195.796 180.026 199.886 177.463 201.659 172.472C202.355 170.518 203.52 170.963 204.83 171.044C206.393 171.138 206.34 172.25 206.334 173.344C206.27 180.693 199.822 187.141 192.514 187.153Z" fill="#FDFEFE"/>
<path d="M230.883 61.1165C230.889 44.1946 241.07 31.8367 255.827 28.9638C269.536 26.2956 283.848 34.2299 289.372 47.524C289.793 48.5421 289.834 50.0693 291.274 50.198C292.543 50.3092 292.859 48.9224 293.45 48.0916C300.267 38.4779 313.216 33.8086 325.059 36.7167C336.867 39.6189 346.199 49.7943 347.879 61.3798C349.049 69.437 347.2 76.8037 343.385 83.8428C337.464 94.7612 329.266 103.848 320.512 112.473C308.277 124.527 294.779 135.035 280.812 144.983C279.32 146.048 278.483 146.065 277.295 144.626C261.555 125.498 246.781 105.738 236.711 82.8773C233.387 75.3467 231 67.5646 230.883 61.1165Z" fill="#FDFEFE"/>
<path d="M110.602 163.608C110.602 159.91 110.485 156.212 110.648 152.525C110.748 150.308 110.233 149.477 107.787 149.518C103.457 149.588 100.075 146.405 99.5778 142.344C99.0863 138.33 101.755 134.275 105.628 133.146C110.479 131.73 115.733 135.457 116.043 140.501C116.312 144.872 115.511 148.95 113.322 152.83C110.479 157.873 111.555 162.045 116.254 165.498C119.835 168.131 123.849 169.377 128.267 169.125C129.712 169.043 130.104 169.459 130.104 170.863C130.098 174.667 130.42 178.511 127.301 181.483C124.393 184.251 121.075 185.38 117.167 183.999C113.176 182.595 110.713 179.377 110.613 175.281C110.52 171.396 110.596 167.505 110.596 163.614C110.59 163.608 110.596 163.608 110.602 163.608ZM107.945 141.092C107.682 142.145 106.74 142.069 106.09 142.397C105.406 142.748 104.487 142.941 104.809 143.977C105.119 144.977 105.944 144.831 106.728 144.538C108.361 143.93 109.987 143.315 111.626 142.719C112.205 142.508 112.696 142.192 112.749 141.543C112.802 140.864 112.287 140.507 111.737 140.285C109.303 139.331 106.869 138.395 104.423 137.476C103.773 137.23 103.042 137.078 102.697 137.932C102.351 138.787 102.989 139.208 103.621 139.465C105.043 140.056 106.506 140.56 107.945 141.092Z" fill="#FDFEFE"/>
<path d="M115.934 134.135C113.886 132.514 112.195 131.244 110.147 131.034C107.8 130.794 108.134 129.512 108.567 128.003C110.439 121.49 116.969 116.452 123.804 116.587C126.156 116.634 126.905 116.095 127.115 113.632C127.624 107.67 133.207 103.738 139.222 104.715C144.745 105.61 148.56 111.169 147.53 116.815C146.524 122.321 140.919 126.019 135.295 124.96C130.281 124.018 125.231 124.668 120.205 124.925C117.496 125.065 116.156 127.02 115.951 129.653C115.846 130.981 115.934 132.321 115.934 134.135Z" fill="#FDFEFE"/>
<path d="M118.638 142.871C121.581 147.827 126.174 147.675 130.808 147.336C134.366 147.078 137.982 147.95 141.493 146.803C142.739 146.394 142.634 147.453 142.722 148.073C143.459 153.503 142.23 158.453 138.251 162.274C133.898 166.463 128.62 168.014 122.663 166.165C121.189 165.709 119.726 165.088 118.404 164.298C113.834 161.589 112.874 157.821 115.607 153.216C117.456 150.103 118 146.68 118.638 142.871ZM132.851 149.776C132.851 149.74 132.851 149.7 132.851 149.664C131.487 149.664 130.13 149.67 128.766 149.664C127.742 149.659 127.151 150.062 127.046 151.174C126.748 154.398 130.182 158.026 133.43 157.862C136.25 157.716 138.854 154.954 138.714 151.888C138.556 148.365 135.606 150.454 134.009 149.799C133.676 149.659 133.243 149.776 132.851 149.776Z" fill="#FDFEFE"/>
<path d="M127.274 127.008C130.925 126.464 134.377 127.113 137.853 127.418C138.233 127.453 138.684 127.412 138.971 127.599C140.82 128.822 140.276 136.458 138.245 137.47C137.362 137.909 136.765 138.43 136.87 139.442C136.975 140.483 137.683 141.01 138.672 140.952C140.428 140.852 140.878 142.215 141.007 143.368C141.142 144.556 140.106 145.176 138.889 145.241C137.613 145.311 136.548 145.492 136.18 143.59C135.799 141.624 134.752 139.787 133.95 137.909C133.664 137.23 133.435 136.183 132.417 136.563C131.265 136.996 131.733 137.967 132.066 138.792C132.213 139.155 132.365 139.512 132.511 139.875C134.173 144.035 133.886 144.527 129.416 145.182C123.365 146.071 118.351 141.747 118.251 135.551C118.222 133.801 118.228 132.046 118.158 130.296C118.064 128.073 119.182 127.055 121.3 127.02C123.336 126.985 125.378 127.008 127.274 127.008ZM127.262 138.88C127.104 137.845 126.554 137.207 125.542 137.224C124.395 137.248 123.74 137.956 123.822 139.085C123.904 140.214 124.688 140.805 125.805 140.671C126.818 140.554 127.216 139.793 127.262 138.88Z" fill="#FDFEFE"/>
<path d="M91.496 120.396C91.1449 127.961 87.7453 137.066 83.6143 145.895C77.4588 159.061 69.6181 171.237 61.2391 183.08C60.4316 184.221 59.9401 185.31 58.1204 184.163C43.7965 175.128 29.7417 165.731 17.6004 153.789C11.9656 148.248 6.6117 142.367 3.78554 134.842C-0.251829 124.111 3.63341 112.221 12.5741 106.791C23.0186 100.449 34.6158 102.128 42.9363 111.192C44.8907 113.321 45.312 113.187 46.3827 110.08C50.6659 97.6927 63.1115 91.3909 75.604 95.2879C85.1708 98.2837 91.7885 107.728 91.496 120.396Z" fill="#FDFEFE"/>
<path d="M320.44 176.656C317.496 176.796 314.635 176.071 311.733 175.837C310.972 175.778 310.059 175.562 309.86 176.65C309.667 177.721 310.615 177.896 311.317 178.13C314.635 179.248 318.023 180.167 321.259 181.477C323.219 182.273 326.384 183.069 325.717 185.632C325.091 188.036 322.037 187.024 320.018 186.843C314.77 186.381 309.726 184.818 304.588 183.747C303.646 183.549 302.336 182.747 301.721 184.058C301.113 185.357 302.5 185.854 303.284 186.498C306.268 188.973 309.632 191.038 311.914 194.286C312.558 195.198 313.57 196.152 312.687 197.41C311.709 198.797 310.264 198.621 308.994 198.036C306.707 196.977 304.325 195.982 302.295 194.52C295.256 189.435 288.041 188.856 280.434 193.08C277.614 194.643 274.554 195.087 271.388 194.561C261.254 192.875 255.836 178.639 262.196 170.465C263.595 168.669 265.432 167.703 267.591 167.276C271.886 166.416 276.186 165.462 280.575 165.492C285.671 165.527 289.995 163.806 293.998 160.764C296.537 158.839 299.094 156.791 302.365 156.194C303.383 156.007 304.758 155.515 305.396 156.428C306.122 157.469 304.922 158.4 304.278 159.178C301.739 162.256 299.34 165.497 296.473 168.236C292.845 171.706 291.289 176.995 286.491 179.388C286.087 179.587 285.806 180.102 286.134 180.635C286.52 181.261 287.064 181.243 287.649 180.974C289.516 180.108 291.347 179.184 292.348 177.235C294.565 172.917 298.532 170.009 301.271 166.112C301.92 165.187 302.81 165.38 303.641 165.527C310.247 166.679 316.929 167.422 323.441 169.073C324.84 169.429 326.15 170.12 327.496 170.67C328.754 171.185 329.199 172.133 329.058 173.473C328.924 174.772 328.333 175.608 327.081 176.071C324.91 176.866 322.663 176.621 320.44 176.656Z" fill="#FDFEFE"/>
<path d="M207.547 139.682C207.88 139.939 208.348 140.156 208.594 140.518C209.881 142.467 211.104 144.456 212.362 146.422C212.778 147.078 212.877 147.692 212.187 148.213C211.098 149.032 210.022 149.869 208.898 150.635C208.372 150.998 207.751 150.951 207.336 150.407C206.891 149.822 207.143 149.143 207.664 148.897C211.186 147.247 209.138 145.357 207.956 143.491C207.488 142.754 206.973 142.034 206.593 141.25C206.213 140.483 206.634 139.998 207.547 139.682Z" fill="#B76D68"/>
<path d="M187.053 141.472C185.936 140.542 185.046 139.822 184.192 139.073C183.654 138.599 183.233 138.014 183.806 137.329C184.379 136.656 185.035 136.92 185.573 137.423C187.059 138.804 188.516 140.214 189.979 141.613C190.049 141.677 190.108 141.759 190.16 141.835C190.517 142.373 190.67 143.099 190.073 143.362C188.124 144.222 186.024 144.503 183.905 144.491C183.373 144.491 182.958 144.023 183.104 143.508C183.619 141.782 185.409 142.56 187.053 141.472Z" fill="#B76D68"/>
<path d="M206.076 155.896C204.771 155.749 203.677 155.662 202.858 154.86C202.261 154.275 201.354 153.649 202.156 152.689C202.899 151.8 203.542 152.619 204.11 153.069C205.374 154.07 206.608 154 207.82 153.034C208.475 152.514 209.253 151.999 209.815 152.847C210.447 153.807 209.522 154.403 208.85 154.953C207.966 155.673 206.901 155.767 206.076 155.896Z" fill="#B76D68"/>
<path d="M202.639 143.333C201.469 143.286 200.913 142.555 200.884 141.49C200.855 140.536 201.364 139.822 202.399 139.74C203.535 139.653 204.254 140.22 204.313 141.367C204.365 142.473 203.775 143.157 202.639 143.333Z" fill="#B76D68"/>
<path d="M107.945 141.092C106.505 140.559 105.043 140.056 103.615 139.471C102.989 139.214 102.345 138.786 102.69 137.938C103.036 137.084 103.761 137.236 104.416 137.482C106.862 138.4 109.296 139.336 111.731 140.29C112.286 140.507 112.795 140.864 112.743 141.548C112.696 142.198 112.199 142.514 111.619 142.724C109.981 143.321 108.354 143.936 106.722 144.544C105.938 144.837 105.119 144.983 104.803 143.982C104.481 142.947 105.394 142.754 106.084 142.403C106.739 142.063 107.681 142.139 107.945 141.092Z" fill="#B76D68"/>
<path d="M132.846 149.775C133.232 149.775 133.671 149.658 134.005 149.792C135.602 150.448 138.545 148.359 138.709 151.881C138.849 154.947 136.246 157.709 133.425 157.855C130.178 158.019 126.743 154.391 127.042 151.167C127.147 150.056 127.738 149.652 128.762 149.658C130.125 149.664 131.483 149.658 132.846 149.658C132.846 149.705 132.846 149.74 132.846 149.775ZM136.316 152.94C136.24 152.718 136.164 152.244 136.07 152.244C134.069 152.168 132.068 152.133 130.067 152.139C129.961 152.139 129.721 152.607 129.768 152.8C130.19 154.462 131.284 155.48 132.992 155.603C134.8 155.726 135.772 154.608 136.316 152.94Z" fill="#B76D68"/>
<path d="M127.26 138.88C127.213 139.787 126.809 140.553 125.803 140.67C124.685 140.805 123.907 140.214 123.819 139.085C123.737 137.955 124.393 137.247 125.54 137.224C126.558 137.206 127.108 137.844 127.26 138.88Z" fill="#B76D68"/>
<path d="M136.319 152.94C135.775 154.608 134.81 155.726 132.996 155.603C131.287 155.48 130.199 154.468 129.772 152.8C129.725 152.607 129.959 152.139 130.07 152.139C132.071 152.133 134.072 152.168 136.074 152.244C136.167 152.244 136.243 152.718 136.319 152.94Z" fill="#FDFEFE"/>
</svg>
