<?xml version="1.0" standalone="no"?>
<!DOCTYPE svg PUBLIC "-//W3C//DTD SVG 20010904//EN"
 "http://www.w3.org/TR/2001/REC-SVG-20010904/DTD/svg10.dtd">
<svg version="1.0" xmlns="http://www.w3.org/2000/svg"
 width="140.000000pt" height="124.000000pt" viewBox="0 0 140.000000 124.000000"
 preserveAspectRatio="xMidYMid meet">

<g transform="translate(0.000000,124.000000) scale(0.100000,-0.100000)"
fill="#000000" stroke="none">
<path d="M399 1140 c-119 -21 -213 -94 -274 -216 -26 -52 -29 -69 -29 -144 1
-54 7 -101 18 -130 21 -55 77 -140 93 -140 23 0 22 18 -4 56 -47 68 -66 132
-66 219 -1 63 4 90 21 126 49 100 167 182 281 196 41 5 69 0 136 -22 83 -28
113 -28 84 -1 -20 19 -116 52 -169 59 -25 3 -66 1 -91 -3z"/>
<path d="M894 1140 c-69 -14 -127 -48 -210 -121 -121 -108 -263 -261 -264
-285 0 -41 67 -84 130 -84 58 0 72 9 186 122 l100 99 180 -181 c98 -99 180
-187 182 -195 6 -26 -18 -55 -45 -55 -20 0 -54 27 -143 115 -64 63 -121 115
-128 115 -32 0 -2 -42 103 -147 64 -63 115 -123 115 -133 0 -25 -26 -50 -52
-50 -13 0 -64 42 -138 115 -64 63 -121 115 -128 115 -31 0 -3 -39 103 -145
118 -117 134 -146 100 -175 -29 -24 -69 1 -180 111 -61 60 -116 109 -123 109
-29 0 -5 -33 103 -143 63 -64 115 -124 115 -132 0 -31 -20 -55 -46 -55 -18 0
-45 19 -88 59 -34 33 -74 64 -88 70 -17 6 -33 24 -42 46 -10 22 -27 41 -49 51
-20 10 -41 31 -51 51 -9 20 -29 39 -47 47 -18 7 -40 30 -53 52 -37 67 -101 71
-163 9 -59 -59 -41 -134 40 -164 16 -6 27 -18 27 -29 0 -22 35 -57 73 -71 16
-6 27 -18 27 -29 0 -21 33 -53 71 -69 17 -8 28 -22 32 -43 5 -23 15 -34 43
-46 48 -20 93 -5 132 43 l29 36 39 -26 c52 -36 88 -35 122 3 15 16 37 39 48
51 12 12 35 35 52 51 16 17 39 39 50 50 11 11 33 34 50 50 16 17 39 39 50 50
11 11 34 33 51 48 22 20 31 37 31 59 0 17 11 49 25 71 48 76 60 120 60 215 0
76 -5 99 -27 146 -71 154 -250 251 -404 219z m118 -41 c115 -25 201 -90 247
-188 34 -75 36 -202 4 -271 -47 -100 -29 -107 -237 99 -168 167 -187 183 -203
170 -9 -8 -59 -56 -109 -107 -103 -104 -148 -129 -197 -113 -18 6 -38 21 -46
33 -13 20 -6 29 133 165 160 157 204 190 274 209 60 16 70 16 134 3z m-616
-594 c15 -23 15 -27 0 -50 -27 -42 -63 -60 -91 -47 -34 16 -33 58 2 94 33 35
67 36 89 3z m100 -100 c15 -23 15 -27 0 -50 -27 -42 -63 -60 -91 -47 -37 17
-34 63 6 96 38 33 64 33 85 1z m100 -100 c15 -23 15 -27 0 -50 -27 -41 -63
-60 -90 -47 -39 18 -40 50 -1 89 39 39 69 42 91 8z m100 -100 c16 -25 2 -58
-38 -88 -22 -17 -32 -18 -51 -10 -38 18 -40 49 -5 89 35 40 71 43 94 9z"/>
</g>
</svg>
