<svg width="21" height="20" viewBox="0 0 21 20" fill="none" xmlns="http://www.w3.org/2000/svg">
<path d="M10.2099 0C4.65337 0 0 3.98972 0 9.03185C0 11.4116 1.06733 13.5462 2.74883 15.1429C2.54438 15.6772 2.25417 16.1746 1.88962 16.6155C1.40645 17.2015 0.872696 17.7439 0.294517 18.2365C0.167691 18.3382 0.0755719 18.4768 0.0308724 18.6332C-0.0138271 18.7895 -0.00890327 18.9559 0.0449643 19.1093C0.098832 19.2627 0.198988 19.3956 0.33161 19.4897C0.464232 19.5837 0.622781 19.6343 0.785379 19.6345C2.52499 19.6345 3.7761 19.6148 4.90862 19.3156C5.92175 19.047 6.79274 18.4847 7.68179 17.6954C8.49073 17.8894 9.32559 18.0637 10.2099 18.0637C15.7665 18.0637 20.4198 14.074 20.4198 9.03185C20.4198 3.98972 15.7665 0 10.2099 0ZM10.2099 1.57076C15.0204 1.57076 18.8491 4.96359 18.8491 9.03185C18.8491 13.1001 15.0204 16.493 10.2099 16.493C9.35464 16.493 8.46638 16.3453 7.65744 16.1246C7.52808 16.0921 7.39256 16.093 7.26368 16.1274C7.13479 16.1617 7.01677 16.2284 6.92076 16.321C6.03721 17.1684 5.38613 17.5634 4.51593 17.7935C4.11538 17.8996 3.34257 17.8744 2.79752 17.9168C2.90747 17.7928 3.01036 17.7268 3.11717 17.5972C3.73448 16.8432 4.29759 16.0461 4.46723 15.1429C4.4906 15.0073 4.47794 14.868 4.43053 14.7388C4.38311 14.6097 4.30261 14.4952 4.19706 14.407C2.55169 13.0483 1.57076 11.1437 1.57076 9.03185C1.57076 4.96359 5.39948 1.57076 10.2099 1.57076ZM8.71299 4.63845C8.57475 4.66947 8.44747 4.73732 8.34465 4.83479L7.16658 5.93982L8.22213 7.09275L9.15437 6.2092H11.044L11.7807 7.04485V8.19857L9.76775 9.54785C9.66016 9.62112 9.57246 9.71998 9.51255 9.83555C9.45265 9.95112 9.4224 10.0798 9.42454 10.2099V11.7807H10.9953V10.6513L13.0082 9.30202C13.1159 9.22868 13.2037 9.12969 13.2636 9.01397C13.3235 8.89826 13.3537 8.76945 13.3514 8.63916V6.74954C13.3504 6.55972 13.2807 6.3767 13.1551 6.23434L11.977 4.90862C11.9037 4.82427 11.8132 4.75654 11.7117 4.70995C11.6101 4.66335 11.4997 4.63898 11.388 4.63845H8.8842C8.8273 4.63221 8.76989 4.63221 8.71299 4.63845ZM9.42454 12.5661V14.1368H10.9953V12.5661H9.42454Z" fill="#B76D68"/>
</svg>
