<svg width="20" height="18" viewBox="0 0 20 18" fill="none" xmlns="http://www.w3.org/2000/svg">
<path d="M9.54147 2.35333C11.6276 0.038851 13.6153 -0.536412 15.8895 0.486527C18.1503 1.50275 19.3433 3.78142 19.0456 6.57491C18.9024 7.92466 18.4457 9.18486 17.7586 10.3443C15.8962 13.4893 13.2639 15.8485 10.1593 17.7243C9.76083 17.966 9.40492 17.9974 9.01768 17.7579C5.58177 15.6359 2.62264 13.0416 0.867751 9.30797C0.10894 7.69187 -0.255915 5.96384 0.200714 4.20671C0.769262 2.01534 2.21302 0.5783 4.45587 0.121671C6.58457 -0.314813 8.21187 0.609637 9.54147 2.35333ZM17.6578 5.63703C17.6959 4.21566 16.8542 2.72714 15.6388 2.01534C14.4032 1.29458 13.1766 1.26101 11.9634 2.04444C11.2583 2.49883 10.8285 3.1972 10.3585 3.86872C9.8235 4.63424 9.33554 4.61857 8.78266 3.88215C8.58344 3.61578 8.43123 3.30912 8.21858 3.05618C7.31428 1.97729 6.25777 1.22967 4.74238 1.54528C3.17552 1.86984 2.18168 2.85473 1.687 4.32311C1.19455 5.78253 1.54374 7.21061 2.14363 8.54916C3.60753 11.8172 6.15032 14.1182 9.05798 16.0791C9.54818 16.4103 9.87275 16.1887 10.2488 15.9448C12.2633 14.6376 14.0473 13.0729 15.4844 11.1434C16.6998 9.51167 17.6131 7.74335 17.6578 5.63703Z" fill="#B76D68"/>
</svg>
