<svg width="22" height="20" viewBox="0 0 22 20" fill="none" xmlns="http://www.w3.org/2000/svg">
<path d="M0.0917969 8.22133C0.158925 2.74202 5.00472 -0.392013 9.53585 1.5547C10.0897 1.79384 10.9078 1.89033 11.4238 1.65539C14.2264 0.384153 16.7143 0.707206 18.9296 2.8553C21.0147 4.87753 21.6566 7.98219 20.4399 10.7806C18.6443 14.9173 15.0781 17.2752 11.3693 19.4317C10.9623 19.6666 10.182 19.6666 9.7708 19.4317C6.04101 17.2962 2.55036 14.8628 0.708534 10.7722C0.288985 9.84079 0.213466 8.75416 0.0917969 8.22133ZM6.74585 3.09025C3.66216 3.00634 1.14906 6.63963 2.62587 9.66039C3.64957 11.7539 5.36973 13.6839 7.19477 15.1691C10.5596 17.9045 10.8406 17.9171 14.0964 15.06C15.9592 13.4279 17.7213 11.3218 18.6485 9.06882C19.9239 5.96416 16.8024 2.2973 13.832 3.26226C11.5874 3.99228 9.66591 4.98241 7.56397 3.19513C7.38776 3.0441 7.02275 3.11961 6.74585 3.09025Z" fill="black"/>
</svg>
