<svg width="26" height="26" viewBox="0 0 26 26" fill="none" xmlns="http://www.w3.org/2000/svg">
<path d="M25.3898 8.81193C24.8414 12.9845 24.3131 17.6678 23.5763 22.3177C23.1792 24.8379 20.9855 26.2632 18.3948 25.9595C16.1203 25.6924 13.8526 25.382 11.5916 25.0182C8.97053 24.5976 7.41271 22.8785 7.67515 20.2648C8.13947 15.5815 8.735 10.9015 9.48867 6.25499C9.93953 3.47773 11.8944 2.27603 14.7341 2.59982C16.8975 2.84684 19.0643 3.09386 21.221 3.39428C23.9598 3.77482 25.4537 5.56401 25.3898 8.81193ZM12.6379 12.6407C12.6346 14.0493 14.2698 16.8833 15.4911 17.5409C15.9521 17.7913 16.4803 17.8313 16.9581 17.6377C18.2568 17.107 19.5085 16.4694 20.4034 15.3578C21.2951 14.2529 21.6551 12.9945 21.0999 11.6326C20.5582 10.3107 19.4815 9.73323 18.0583 9.7132C17.6815 9.70653 17.3013 9.56299 16.9278 9.45951C14.5692 8.79858 12.6413 10.2273 12.6379 12.6407Z" fill="#B76D68"/>
<path d="M12.8101 0C12.6419 0.697652 12.2516 0.677624 11.9488 0.764413C9.12922 1.5789 7.75309 3.64849 7.33588 6.33228C6.67642 10.5916 6.18182 14.8777 5.65022 19.1537C5.44161 20.8394 5.66368 22.4717 6.57885 23.9638C6.74371 24.2309 7.03307 24.5513 6.76054 24.8584C6.51828 25.1322 6.13136 24.9986 5.80835 24.9386C3.69202 24.5513 2.3058 22.8423 1.93906 20.0917C1.36708 15.7623 0.815281 11.4328 0.270215 7.10337C-0.167183 3.6318 1.5454 1.48877 5.07823 1.02812C7.61178 0.697652 10.142 0.353833 12.8101 0Z" fill="#DAB3B0"/>
<path d="M15.9246 11.2954C16.6783 11.7594 17.5632 11.9063 18.5187 11.8061C18.8653 11.7694 19.1176 12.1366 19.2085 12.447C19.6358 13.9458 18.3707 14.4098 17.5026 15.1041C16.722 15.7283 16.1265 15.518 15.6117 14.6969C15.1979 14.0393 14.7133 13.4251 14.6965 12.6139C14.673 11.8595 14.9892 11.3522 15.9246 11.2954Z" fill="#B76D68"/>
</svg>
