<svg width="67" height="67" viewBox="0 0 67 67" fill="none" xmlns="http://www.w3.org/2000/svg">
<g filter="url(#filter0_d_401_331)">
<rect x="5" y="5" width="57.002" height="57.002" rx="5.9377" fill="white"/>
</g>
<path d="M45.1455 31.1748H44.189V31.1255H33.5015V35.8755H40.2126C39.2335 38.6406 36.6026 40.6255 33.5015 40.6255C29.5667 40.6255 26.3765 37.4353 26.3765 33.5005C26.3765 29.5657 29.5667 26.3755 33.5015 26.3755C35.3177 26.3755 36.9702 27.0607 38.2283 28.1799L41.5872 24.8211C39.4663 22.8445 36.6293 21.6255 33.5015 21.6255C26.9435 21.6255 21.6265 26.9425 21.6265 33.5005C21.6265 40.0585 26.9435 45.3755 33.5015 45.3755C40.0594 45.3755 45.3765 40.0585 45.3765 33.5005C45.3765 32.7043 45.2945 31.9271 45.1455 31.1748Z" fill="#FFC107"/>
<path d="M22.9961 27.9733L26.8976 30.8346C27.9533 28.2209 30.51 26.3755 33.5019 26.3755C35.3182 26.3755 36.9706 27.0607 38.2288 28.1799L41.5876 24.8211C39.4667 22.8445 36.6298 21.6255 33.5019 21.6255C28.9407 21.6255 24.9852 24.2006 22.9961 27.9733Z" fill="#FF3D00"/>
<path d="M33.5014 45.3766C36.5687 45.3766 39.3558 44.2028 41.463 42.2939L37.7877 39.1838C36.5556 40.1214 35.0497 40.6283 33.5014 40.6266C30.4127 40.6266 27.7901 38.6572 26.8021 35.9087L22.9297 38.8923C24.895 42.738 28.8862 45.3766 33.5014 45.3766Z" fill="#4CAF50"/>
<path d="M45.1465 31.1753H44.1899V31.126H33.5024V35.876H40.2136C39.7453 37.192 38.9016 38.3419 37.7869 39.1838L37.7887 39.1826L41.464 42.2926C41.204 42.5289 45.3774 39.4385 45.3774 33.501C45.3774 32.7048 45.2955 31.9275 45.1465 31.1753Z" fill="#1976D2"/>
<defs>
<filter id="filter0_d_401_331" x="0.249837" y="0.249837" width="66.5023" height="66.5023" filterUnits="userSpaceOnUse" color-interpolation-filters="sRGB">
<feFlood flood-opacity="0" result="BackgroundImageFix"/>
<feColorMatrix in="SourceAlpha" type="matrix" values="0 0 0 0 0 0 0 0 0 0 0 0 0 0 0 0 0 0 127 0" result="hardAlpha"/>
<feOffset/>
<feGaussianBlur stdDeviation="2.37508"/>
<feComposite in2="hardAlpha" operator="out"/>
<feColorMatrix type="matrix" values="0 0 0 0 0 0 0 0 0 0 0 0 0 0 0 0 0 0 0.25 0"/>
<feBlend mode="normal" in2="BackgroundImageFix" result="effect1_dropShadow_401_331"/>
<feBlend mode="normal" in="SourceGraphic" in2="effect1_dropShadow_401_331" result="shape"/>
</filter>
</defs>
</svg>
