<svg width="20" height="17" viewBox="0 0 20 17" fill="none" xmlns="http://www.w3.org/2000/svg">
<path d="M9.27347 16.9914C7.2978 16.9914 5.32213 17.0004 3.34422 16.9914C1.08823 16.9779 0.0162995 15.8881 0.00957192 13.6231C0.00508686 11.9838 -0.0128534 10.3423 0.0162995 8.703C0.0454524 7.09286 0.967133 6.40216 2.42478 7.03455C3.37113 7.44493 4.02819 6.87533 4.73907 6.61295C5.16291 6.45598 4.89829 5.74509 4.91175 5.28762C4.94314 4.31884 4.90278 3.35007 4.92744 2.3813C4.96333 0.883285 6.08908 0.080458 7.40096 0.735277C8.26882 1.16809 8.98643 1.00887 9.71525 0.625393C11.294 -0.206586 12.8391 -0.206586 14.4156 0.614181C15.2364 1.0425 16.0168 1.14566 16.9429 0.663516C18.0014 0.109611 19.2303 0.907952 19.246 2.11443C19.2909 5.84152 19.3402 9.57086 19.2281 13.2957C19.1586 15.6526 17.6718 16.9465 15.3149 16.9847C13.3011 17.0161 11.2873 16.9891 9.27347 16.9914ZM5.75045 15.6436C9.00437 15.6436 12.1282 15.6571 15.2498 15.6391C17.0057 15.6279 17.8915 14.7937 17.9117 13.0468C17.9521 9.62019 17.9117 6.1936 17.9364 2.76701C17.9409 1.95073 17.6381 1.73096 16.934 2.09874C16.0571 2.55621 15.1848 2.47324 14.373 2.02698C12.792 1.15687 11.2693 1.24209 9.71525 2.08304C8.96176 2.49118 8.13651 2.53155 7.35386 2.1391C6.46806 1.69284 6.25054 2.02922 6.25727 2.90156C6.28418 5.95589 6.26848 9.01022 6.26624 12.0646C6.26624 13.2464 6.38509 14.4439 5.75045 15.6436ZM1.35733 11.4366C1.35733 12.1834 1.35061 12.9279 1.35958 13.6747C1.37303 14.9484 1.85518 15.5696 2.85983 15.6279C3.97437 15.6907 4.87138 14.9148 4.90502 13.7352C4.95436 12.0578 4.9095 10.3804 4.92744 8.703C4.93417 8.17824 4.76598 8.01229 4.27711 8.25673C3.53035 8.62899 2.78358 8.6402 2.02112 8.28813C1.55692 8.07284 1.33715 8.21861 1.35061 8.75457C1.37303 9.6471 1.35733 10.5419 1.35733 11.4366Z" fill="#B76D68"/>
<path d="M12.2227 9.13274C11.9737 9.13947 11.8078 9.00043 11.6531 8.82776C11.3817 8.52278 11.0812 8.23797 10.8345 7.91281C10.4892 7.45757 9.61012 7.03822 10.3726 6.37667C11.0296 5.80483 11.4557 6.55383 11.7854 6.99113C12.1778 7.51139 12.3729 7.32302 12.6914 6.94403C13.2879 6.23091 13.9225 5.54693 14.5549 4.86296C14.8801 4.51313 15.2546 4.25299 15.7008 4.68804C16.1135 5.08946 15.8421 5.44602 15.5663 5.75773C14.6805 6.76463 13.779 7.75807 12.882 8.75376C12.7048 8.95334 12.512 9.12602 12.2227 9.13274Z" fill="#B76D68"/>
<path d="M12.4347 11.3881C11.5444 11.3881 10.6541 11.3881 9.7661 11.3881C9.34002 11.3881 9.01934 11.2042 8.99467 10.7669C8.96776 10.2601 9.30414 10.0493 9.77956 10.0493C11.5601 10.0471 13.3385 10.0493 15.119 10.0493C15.5451 10.0493 15.8658 10.2332 15.8905 10.6705C15.9196 11.1773 15.581 11.3859 15.1056 11.3881C14.213 11.3926 13.3228 11.3904 12.4347 11.3881Z" fill="#B76D68"/>
</svg>
