<svg width="24" height="27" viewBox="0 0 24 27" fill="none" xmlns="http://www.w3.org/2000/svg">
<path d="M2.37012 18.8496H0.84668L5.25293 6.84961H6.75293L11.1592 18.8496H9.63574L6.0498 8.74805H5.95605L2.37012 18.8496ZM2.93262 14.1621H9.07324V15.4512H2.93262V14.1621Z" fill="#B76D68"/>
<path d="M20.3437 26.91C19.8037 26.91 19.2437 26.845 18.6637 26.715C18.0837 26.595 17.5437 26.38 17.0437 26.07C16.5437 25.77 16.1337 25.36 15.8137 24.84C15.5037 24.33 15.3487 23.685 15.3487 22.905C15.3487 22.185 15.4937 21.51 15.7837 20.88C16.0737 20.25 16.4837 19.68 17.0137 19.17C17.5537 18.66 18.1887 18.23 18.9187 17.88C19.6487 17.53 20.4537 17.28 21.3337 17.13L21.6487 18.3C20.9187 18.43 20.2437 18.625 19.6237 18.885C19.0037 19.145 18.4637 19.465 18.0037 19.845C17.5537 20.215 17.2037 20.64 16.9537 21.12C16.7037 21.61 16.5787 22.145 16.5787 22.725C16.5787 23.195 16.6587 23.6 16.8187 23.94C16.9787 24.28 17.1887 24.56 17.4487 24.78C17.7187 25.01 18.0187 25.19 18.3487 25.32C18.6787 25.45 19.0137 25.54 19.3537 25.59C19.7037 25.65 20.0337 25.68 20.3437 25.68C20.8737 25.68 21.4137 25.63 21.9637 25.53C22.5137 25.44 23.0137 25.3 23.4637 25.11L23.8537 26.16C23.6137 26.28 23.2937 26.395 22.8937 26.505C22.5037 26.625 22.0837 26.72 21.6337 26.79C21.1837 26.87 20.7537 26.91 20.3437 26.91ZM17.8687 18.96C17.4687 18.86 17.1087 18.68 16.7887 18.42C16.4687 18.16 16.2137 17.85 16.0237 17.49C15.8437 17.13 15.7537 16.75 15.7537 16.35C15.7537 15.72 15.8987 15.195 16.1887 14.775C16.4887 14.355 16.8687 14.04 17.3287 13.83C17.7987 13.62 18.2937 13.515 18.8137 13.515C19.0437 13.515 19.2887 13.535 19.5487 13.575C19.8087 13.615 20.0587 13.675 20.2987 13.755L20.0437 14.91C19.8437 14.86 19.6337 14.82 19.4137 14.79C19.1937 14.76 18.9937 14.745 18.8137 14.745C18.4537 14.745 18.1337 14.81 17.8537 14.94C17.5737 15.07 17.3537 15.25 17.1937 15.48C17.0337 15.7 16.9537 15.96 16.9537 16.26C16.9537 16.53 17.0287 16.775 17.1787 16.995C17.3387 17.205 17.5387 17.39 17.7787 17.55C18.0187 17.7 18.2637 17.815 18.5137 17.895C18.7637 17.965 18.9837 17.995 19.1737 17.985L17.8687 18.96Z" fill="#B76D68"/>
</svg>
