<svg width="19" height="19" viewBox="0 0 19 19" fill="none" xmlns="http://www.w3.org/2000/svg">
<path d="M5.60789 8.68661C6.86541 7.4291 9.05857 7.4291 10.3161 8.68661L11.1008 9.47131L12.6702 7.90191L11.8855 7.11721C10.8388 6.06947 9.44481 5.49121 7.96199 5.49121C6.47916 5.49121 5.08513 6.06947 4.0385 7.11721L1.68329 9.47131C0.645292 10.5135 0.0625 11.9245 0.0625 13.3954C0.0625 14.8663 0.645292 16.2772 1.68329 17.3194C2.19803 17.8351 2.80967 18.244 3.48302 18.5225C4.15636 18.801 4.87812 18.9436 5.60678 18.9421C6.33563 18.9437 7.0576 18.8012 7.73115 18.5227C8.40469 18.2442 9.01651 17.8353 9.53139 17.3194L10.3161 16.5347L8.74669 14.9653L7.96199 15.75C7.33653 16.3727 6.4899 16.7222 5.60734 16.7222C4.72478 16.7222 3.87815 16.3727 3.25269 15.75C2.62948 15.1248 2.27954 14.2781 2.27954 13.3954C2.27954 12.5126 2.62948 11.6659 3.25269 11.0407L5.60789 8.68661Z" fill="#B76D68"/>
<path d="M9.53137 1.62262L8.74667 2.40732L10.3161 3.97672L11.1008 3.19202C11.7262 2.56935 12.5729 2.21978 13.4554 2.21978C14.338 2.21978 15.1846 2.56935 15.8101 3.19202C16.4333 3.81719 16.7832 4.66393 16.7832 5.54667C16.7832 6.42941 16.4333 7.27614 15.8101 7.90132L13.4549 10.2554C12.1974 11.5129 10.0042 11.5129 8.74667 10.2554L7.96198 9.47072L6.39258 11.0401L7.17728 11.8248C8.22391 12.8726 9.61794 13.4508 11.1008 13.4508C12.5836 13.4508 13.9776 12.8726 15.0243 11.8248L17.3795 9.47072C18.4175 8.42855 19.0003 7.01757 19.0003 5.54667C19.0003 4.07577 18.4175 2.66478 17.3795 1.62262C16.3379 0.583539 14.9267 0 13.4554 0C11.9842 0 10.573 0.583539 9.53137 1.62262Z" fill="#B76D68"/>
</svg>
