<svg width="23" height="27" viewBox="0 0 23 27" fill="none" xmlns="http://www.w3.org/2000/svg">
<path d="M12.0319 0.0218313C20.5513 0.555066 25.4413 9.38857 21.4276 17.0729C19.6212 20.5286 17.079 23.3767 13.954 25.7204C12.2262 27.0142 10.6058 27.0101 8.90278 25.6502C4.61623 22.2399 1.00346 18.3833 0.247016 12.6541C-0.678911 5.689 5.04613 -0.412197 12.0319 0.0218313ZM11.54 2.10103C5.84391 2.10103 1.63177 6.69346 2.33862 12.3069C3.01653 17.6888 6.51356 21.2189 10.6141 24.2819C11.4532 24.9061 12.1766 24.4307 12.8545 23.9264C15.6984 21.7976 18.0546 19.2141 19.6212 16.0271C22.8578 9.43818 18.5589 2.10103 11.54 2.10103Z" fill="#B76D68"/>
<path d="M11.5406 2.10059C18.5595 2.10059 22.8584 9.43773 19.6177 16.0267C18.051 19.2137 15.6949 21.7972 12.851 23.926C12.1731 24.4344 11.4497 24.9098 10.6106 24.2815C6.51416 21.2144 3.01713 17.6843 2.33922 12.3064C1.63238 6.69302 5.84452 2.10059 11.5406 2.10059ZM16.8895 10.405C16.8399 7.404 14.926 6.34166 9.80864 6.47807C7.6633 6.53594 6.00573 8.32992 6.05533 10.5414C6.10907 12.9802 9.41181 16.8989 11.429 16.9154C13.4958 16.9402 16.9308 12.8397 16.8895 10.405Z" fill="#DAB3B0" fill-opacity="0.2"/>
<path d="M16.8899 10.4057C16.9313 12.8404 13.4963 16.9409 11.4295 16.9202C9.41226 16.8996 6.10951 12.9809 6.05577 10.5462C6.00617 8.33473 7.66374 6.54075 9.80908 6.48288C14.9265 6.34233 16.8403 7.40467 16.8899 10.4057ZM14.8479 9.9675C14.8025 9.05811 14.1039 8.52901 12.8431 8.71089C12.1818 8.80596 11.5659 9.16972 10.8425 8.89277C9.90002 8.52901 8.87489 8.36366 8.32099 9.4508C7.71335 10.6413 8.24658 11.7698 9.0361 12.6585C9.76775 13.4852 10.4333 14.6715 11.7808 14.4483C13.0829 14.2334 14.8521 11.7201 14.8479 9.9675Z" fill="#B76D68"/>
</svg>
