<svg width="22" height="22" viewBox="0 0 22 22" fill="none" xmlns="http://www.w3.org/2000/svg">
<path d="M7.80504 0C9.17204 0 10.275 -1.49012e-08 11.142 0.117C12.042 0.237 12.8 0.497 13.402 1.098C13.926 1.623 14.192 2.268 14.331 3.026C14.466 3.763 14.492 4.664 14.498 5.746C14.4991 5.94491 14.4211 6.1361 14.2812 6.2775C14.1413 6.4189 13.9509 6.49894 13.752 6.5C13.5531 6.50106 13.3619 6.42306 13.2205 6.28316C13.0791 6.14326 12.9991 5.95291 12.998 5.754C12.992 4.661 12.964 3.886 12.856 3.297C12.751 2.731 12.584 2.402 12.341 2.159C12.064 1.882 11.675 1.702 10.941 1.603C10.186 1.502 9.18504 1.5 7.75004 1.5H6.75004C5.31404 1.5 4.31304 1.502 3.55804 1.603C2.82404 1.702 2.43604 1.883 2.15804 2.159C1.88204 2.436 1.70204 2.824 1.60304 3.559C1.50104 4.313 1.50004 5.315 1.50004 6.75V14.75C1.50004 16.185 1.50104 17.186 1.60304 17.942C1.70204 18.676 1.88204 19.064 2.15904 19.341C2.43604 19.618 2.82404 19.798 3.55804 19.897C4.31304 19.998 5.31404 20 6.75004 20H7.75004C9.18504 20 10.186 19.998 10.942 19.897C11.675 19.798 12.064 19.617 12.341 19.341C12.584 19.097 12.751 18.769 12.856 18.203C12.964 17.614 12.992 16.839 12.998 15.746C12.9986 15.6475 13.0185 15.5501 13.0567 15.4593C13.0948 15.3685 13.1505 15.2861 13.2205 15.2168C13.2905 15.1476 13.3735 15.0928 13.4647 15.0556C13.5559 15.0184 13.6535 14.9995 13.752 15C13.8505 15.0005 13.948 15.0204 14.0387 15.0586C14.1295 15.0968 14.2119 15.1525 14.2812 15.2225C14.3505 15.2925 14.4053 15.3755 14.4425 15.4667C14.4797 15.5579 14.4986 15.6555 14.498 15.754C14.492 16.836 14.466 17.737 14.331 18.474C14.191 19.232 13.926 19.877 13.401 20.402C12.8 21.004 12.041 21.262 11.141 21.384C10.275 21.5 9.17204 21.5 7.80504 21.5H6.69504C5.32704 21.5 4.22504 21.5 3.35804 21.384C2.45804 21.262 1.70004 21.004 1.09804 20.402C0.496036 19.8 0.238035 19.042 0.116035 18.142C3.52859e-05 17.275 3.62396e-05 16.172 3.62396e-05 14.805V6.695C3.62396e-05 5.328 3.52859e-05 4.225 0.116035 3.358C0.237036 2.458 0.496036 1.7 1.09804 1.098C1.70004 0.496 2.45804 0.238 3.35804 0.117C4.22504 -1.49012e-08 5.32804 0 6.69504 0H7.80504Z" fill="#B76D68"/>
<path d="M7.75042 10.0004C7.55151 10.0004 7.36074 10.0794 7.22009 10.22C7.07944 10.3607 7.00042 10.5515 7.00042 10.7504C7.00042 10.9493 7.07944 11.14 7.22009 11.2807C7.36074 11.4213 7.55151 11.5004 7.75042 11.5004H18.7234L16.7624 13.1804C16.6112 13.3098 16.5177 13.494 16.5023 13.6924C16.4869 13.8908 16.551 14.0872 16.6804 14.2384C16.8098 14.3895 16.994 14.4831 17.1924 14.4985C17.3908 14.5139 17.5872 14.4498 17.7384 14.3204L21.2384 11.3204C21.3208 11.25 21.3869 11.1625 21.4322 11.0641C21.4775 10.9657 21.501 10.8587 21.501 10.7504C21.501 10.642 21.4775 10.535 21.4322 10.4366C21.3869 10.3382 21.3208 10.2508 21.2384 10.1804L17.7384 7.18036C17.6636 7.11628 17.5768 7.06756 17.4831 7.037C17.3895 7.00644 17.2907 6.99463 17.1924 7.00224C17.0942 7.00986 16.9984 7.03675 16.9106 7.08138C16.8227 7.12601 16.7445 7.18751 16.6804 7.26236C16.6163 7.33722 16.5676 7.42396 16.5371 7.51764C16.5065 7.61132 16.4947 7.7101 16.5023 7.80835C16.5099 7.90659 16.5368 8.00237 16.5814 8.09022C16.6261 8.17808 16.6876 8.25628 16.7624 8.32036L18.7224 10.0004H7.75042Z" fill="#B76D68"/>
</svg>
