<svg width="19" height="19" viewBox="0 0 19 19" fill="none" xmlns="http://www.w3.org/2000/svg">
<path d="M9.44511 18.8689C7.36007 18.8689 5.27283 18.8799 3.18778 18.8645C1.21051 18.8513 0.0250304 17.6988 0.0140334 15.7479C-0.00576135 12.2706 -0.00356193 8.79335 0.0140334 5.31828C0.0250304 3.3982 1.2479 2.21052 3.18998 2.17753C3.70245 2.16873 4.21491 2.15773 4.72737 2.17972C5.82268 2.22371 6.99057 2.40406 6.62326 0.629139C6.55068 0.281632 6.8542 0.00670607 7.2347 0.000107835C7.67458 -0.0064904 7.9759 0.29043 7.89672 0.692922C7.58441 2.2699 8.54115 2.2787 9.63426 2.17972C9.92458 2.15333 10.2215 2.15113 10.5118 2.17972C11.5587 2.2875 12.4055 2.22371 12.1064 0.772101C12.014 0.321222 12.3021 -0.0284845 12.8014 0.00450666C13.2347 0.033099 13.4788 0.369609 13.3931 0.772101C13.0851 2.21931 13.9319 2.21052 14.9832 2.19292C17.9634 2.14673 18.8982 3.11447 18.9004 6.11007C18.9004 9.25743 18.907 12.4048 18.8982 15.5521C18.8916 17.7296 17.7567 18.8623 15.5947 18.8689C13.5426 18.8755 11.495 18.8689 9.44511 18.8689ZM9.42091 17.5492C11.4334 17.5492 13.4458 17.5558 15.4583 17.547C17.0309 17.5404 17.5741 17.006 17.5785 15.4466C17.5873 12.5939 17.5807 9.7391 17.5807 6.88646C17.5807 3.65113 17.286 3.36741 14.0947 3.48837C13.7164 3.50377 13.3711 3.44878 13.3799 4.01403C13.3843 4.33295 13.1313 4.53309 12.8058 4.57708C12.5155 4.61447 12.2032 4.45392 12.1966 4.22078C12.1702 3.27063 11.5038 3.50377 10.9671 3.49717C10.1995 3.48617 9.42971 3.50377 8.66212 3.49057C8.24643 3.48398 7.87473 3.44659 7.87473 4.06242C7.87473 4.37034 7.5976 4.56389 7.26549 4.57708C6.97517 4.58808 6.68925 4.41653 6.68045 4.17679C6.65186 3.30142 6.04262 3.49937 5.53895 3.49497C4.80655 3.48837 4.07635 3.48398 3.34394 3.49497C1.92972 3.51477 1.34468 4.07342 1.33588 5.50304C1.31608 8.86813 1.32048 12.2354 1.33588 15.6005C1.34248 16.9664 1.91872 17.5338 3.27576 17.5426C5.32341 17.5602 7.37326 17.5492 9.42091 17.5492Z" fill="#B76D68"/>
<path d="M9.99695 7.88825C8.46616 7.88825 6.93537 7.88385 5.40458 7.89045C4.93611 7.89265 4.45883 7.84646 4.43024 7.27682C4.39725 6.62359 4.90312 6.56641 5.41558 6.56641C8.47716 6.57081 11.5387 6.57081 14.6003 6.56641C15.0688 6.56641 15.5461 6.60819 15.5747 7.18004C15.6076 7.83327 15.1018 7.89265 14.5893 7.89045C13.0585 7.88385 11.5277 7.88825 9.99695 7.88825Z" fill="#B76D68"/>
</svg>
