<svg width="21" height="17" viewBox="0 0 21 17" fill="none" xmlns="http://www.w3.org/2000/svg">
<path d="M7.70174 0.0126337C9.24339 0.0126337 10.7872 -0.0197085 12.3288 0.0191021C14.3599 0.0708496 15.3431 0.997992 15.5005 3.02692C15.5393 3.51853 15.7506 3.69749 16.1452 3.86998C17.1586 4.31199 18.1698 4.76693 19.1573 5.265C20.1362 5.75876 20.6278 6.61259 20.658 7.69282C20.6947 9.05335 20.7119 10.4182 20.6688 11.7787C20.6257 13.1651 19.608 14.2863 18.2151 14.4933C17.7623 14.5601 17.4971 14.668 17.2384 15.1013C16.0374 17.1109 13.7131 17.0915 12.497 15.0604C12.2253 14.6054 11.9407 14.5149 11.4879 14.53C10.8066 14.5537 10.1253 14.5494 9.44391 14.5321C8.46286 14.5106 7.67587 14.4955 6.98375 15.5908C6.01995 17.1195 3.76031 16.8241 2.76202 15.248C2.47525 14.7952 2.19064 14.4329 1.63435 14.2022C0.59509 13.7688 0.0409603 12.8611 0.0301796 11.7334C-0.00216258 8.75796 -0.0172556 5.78032 0.0301796 2.80484C0.0560533 1.22223 1.14491 0.189438 2.75339 0.0428197C2.8612 0.0341951 2.96685 0.0147898 3.07466 0.0147898C4.6163 0.0126337 6.1601 0.0147898 7.70174 0.0126337ZM1.30446 7.14947C1.30446 8.36769 1.29368 9.58807 1.30877 10.8063C1.31524 11.2677 1.32818 11.7421 1.43599 12.1862C1.5287 12.57 1.79391 12.943 2.20573 13.0142C2.61109 13.0832 2.64127 12.6153 2.81376 12.376C3.91987 10.8365 6.17304 10.7459 7.14546 12.363C7.66509 13.2298 8.25587 13.2815 9.04287 13.2492C9.43744 13.2341 9.83202 13.2406 10.2266 13.2471C11.3047 13.2643 12.4539 13.4907 12.9282 12.0655C13.0015 11.8456 13.3444 11.6731 13.5966 11.5609C14.071 11.3518 14.25 11.0672 14.2413 10.5152C14.2025 8.11543 14.2306 5.71348 14.2219 3.31154C14.2176 1.91867 13.6872 1.33004 12.2922 1.31495C9.24554 1.2826 6.19675 1.2826 3.15012 1.31495C1.83056 1.33004 1.32171 1.91435 1.30877 3.27704C1.29584 4.56857 1.30446 5.85794 1.30446 7.14947ZM15.5178 4.98902C15.5178 6.55007 15.5242 7.94509 15.5156 9.33796C15.5091 10.3729 15.272 11.4919 16.6627 11.9275C16.8632 11.99 16.9753 12.3048 17.1478 12.4838C17.4066 12.749 17.3289 13.3786 18.0038 13.2104C18.6075 13.0595 19.0474 12.7705 19.2652 12.1798C19.498 11.5545 19.3255 10.9012 19.401 10.2651C19.4829 9.57729 19.2522 9.35305 18.5342 9.35737C17.9434 9.36168 16.8934 9.78213 16.8783 8.77952C16.861 7.66479 17.9607 8.11543 18.5709 8.12621C19.498 8.1413 19.4829 7.78338 19.2005 7.11713C19.0194 6.6859 18.7067 6.43148 18.3035 6.24821C17.4303 5.85363 16.5592 5.46121 15.5178 4.98902ZM5.01519 15.2868C5.82805 15.179 6.36925 14.8016 6.39728 13.9327C6.42531 13.1198 5.80002 12.4795 5.01088 12.4816C4.23898 12.4816 3.61154 13.1479 3.65035 13.9478C3.69347 14.8146 4.23898 15.179 5.01519 15.2868ZM13.5427 13.5079C13.4975 14.6636 14.0387 15.2911 14.8494 15.2609C15.6515 15.2307 16.1776 14.8469 16.2013 13.9694C16.225 13.0573 15.7463 12.5053 14.8968 12.5161C14.0602 12.5269 13.5859 12.9603 13.5427 13.5079Z" fill="#B76D68"/>
</svg>
