<svg width="170" height="158" viewBox="0 0 170 158" fill="none" xmlns="http://www.w3.org/2000/svg">
<path d="M148.087 69.53C151.907 69.8219 155.239 69.3111 157.842 70.4544C161.101 71.9017 163.984 74.5896 163.424 78.9559C162.707 84.5993 166.173 91.7143 158.632 95.0347C155.798 96.2874 154.777 98.1848 153.731 100.642C147.431 115.261 141.07 129.856 134.709 144.439C130.574 153.925 122.096 156.942 112.999 157.173C91.9578 157.696 70.9046 157.428 49.8514 157.294C40.8025 157.233 31.9847 150.41 28.4455 141.957C22.6683 128.19 16.5992 114.543 10.6031 100.861C9.4842 98.2942 8.25579 96.1658 5.15437 94.9009C0.55696 93.0157 -1.31606 83.8331 0.982646 76.7059C2.60025 71.6828 6.06655 69.5665 11.6005 69.7368C23.3251 70.0773 35.074 69.8706 46.8108 69.8098C48.2946 69.7976 50.4473 70.6368 51.0068 68.557C51.396 67.1219 49.7662 66.1854 48.623 65.3461C41.8606 60.4447 36.5457 54.0107 30.6834 48.1606C27.1927 44.6821 27.4117 40.5469 30.6347 36.7887C32.2158 34.9522 33.9915 33.2738 35.7794 31.6318C38.7227 28.9196 41.9701 28.8223 45.108 31.1697C47.8446 33.2129 50.4838 35.4265 52.965 37.786C63.2179 47.5282 73.4222 57.3189 83.5779 67.1583C86.5333 70.0287 88.2482 70.7463 89.4766 65.6745C91.0456 59.1676 93.3321 53.4148 86.5941 47.6984C81.6562 43.5145 82.3981 36.4482 83.7116 30.4886C85.4387 22.6195 87.0563 14.7625 88.1509 6.7961C88.5401 3.97441 89.5496 1.60273 93.2227 2.49059C93.8065 2.63654 94.6578 3.0379 94.9497 2.79465C104.655 -5.17175 112.962 6.61367 122.449 4.7893C125.83 4.14469 130.136 13.826 128.542 18.0464C125.052 27.2898 121.573 36.5455 117.973 45.7403C115.918 50.9945 110.761 54.8864 104.704 55.0445C100.24 55.154 98.6228 56.9784 97.8687 60.7731C97.5525 62.342 97.1147 63.9231 96.4214 65.3583C94.9133 68.4719 95.6673 69.8827 99.2188 69.8584C107.319 69.7976 115.407 69.8706 123.507 69.8219C126.56 69.8098 129.528 68.5692 127.521 65.2002C121.525 55.1054 125.356 46.2024 129.941 37.2144C130.768 35.5968 132.094 34.0157 132.276 32.3129C133.322 22.6803 141.094 22.8992 147.747 21.4397C148.294 21.3181 149.194 21.3546 149.462 21.6951C153.804 27.0223 160.761 27.6061 166.039 30.9994C169.676 33.3346 169.846 39.7077 167.949 42.3713C161.576 51.3107 157.112 61.6731 148.087 69.53ZM82.69 96.5793C63.8625 96.5793 45.0472 96.5672 26.2197 96.5915C19.6034 96.6037 19.0925 97.1145 21.4885 102.855C26.6211 115.139 31.9482 127.35 37.2632 139.561C39.8417 145.497 44.7431 147.649 50.9217 147.649C71.9749 147.637 93.0281 147.552 114.069 147.71C119.53 147.747 123.446 145.789 126.013 141.07C132.86 128.457 137.312 114.799 143.356 101.834C145.521 97.1874 144.232 96.482 139.768 96.5185C120.734 96.6645 101.712 96.5793 82.69 96.5793ZM118.812 86.8615C128.919 86.8615 139.026 86.8858 149.133 86.8494C151.834 86.8372 155.069 87.6642 154.923 82.9939C154.777 78.6762 151.736 79.6005 149.292 79.5884C133.128 79.5397 116.952 79.5762 100.788 79.5519C98.3187 79.5519 96.1782 79.5762 94.4633 82.0209C92.0551 85.475 89.2577 84.9642 86.3509 82.1547C78.8102 74.8693 71.16 67.7057 63.5341 60.5055C56.9421 54.2783 50.3257 48.0633 43.685 41.8848C42.4566 40.7537 41.2525 38.5644 39.2336 40.6199C37.3849 42.5051 38.9538 43.5632 40.4133 44.9497C53.8528 57.7689 67.2315 70.6368 80.5008 83.6263C82.8481 85.9128 85.1955 86.9953 88.5037 86.9345C98.6106 86.7521 108.718 86.8615 118.812 86.8615ZM90.5591 35.4022C90.2064 41.0212 92.5659 44.4389 96.5065 46.6403C101.445 49.4012 105.592 47.7836 109.666 44.1592C113.887 40.401 112.233 36.8252 109.873 33.444C105.969 27.8371 101.663 22.51 97.4917 17.0855C96.3606 15.626 94.9133 14.5193 94.2687 17.3166C92.8456 23.5924 91.6781 29.9169 90.5591 35.4022ZM69.9559 86.8615C66.4531 83.0182 64.5801 79.4789 59.7273 79.5154C44.7918 79.6249 29.8441 79.5762 14.9087 79.5397C12.1843 79.5276 10.1775 79.8438 10.2504 83.3709C10.3234 86.5575 12.1235 86.8858 14.6168 86.8737C32.5807 86.8494 50.5446 86.8615 69.9559 86.8615ZM139.44 33.14C136.314 39.7807 133.407 45.2903 131.084 51.0431C129.248 55.6162 131.522 59.4717 135.049 62.1717C138.406 64.738 142.31 64.4218 145.862 62.1353C150.021 59.4595 149.012 55.75 147.893 51.8701C146.105 45.5943 143.052 39.9509 139.44 33.14ZM103.135 8.31641C101.846 8.3529 101.444 9.1921 101.651 9.90969C102.466 12.7314 104.631 14.5193 107.051 15.8206C108.073 16.368 108.9 15.0909 108.487 14.0449C107.465 11.3813 105.312 9.69077 103.135 8.31641ZM158.122 44.8524C158.134 43.2956 156.93 43.1497 155.75 43.1862C154.448 43.2226 152.575 42.9916 153.135 45.1443C153.475 46.4335 153.159 48.8295 155.409 48.5741C157.088 48.3917 157.477 46.4335 158.122 44.8524ZM118.277 23.3978C118.192 21.6586 117.134 21.1356 115.833 21.537C114.58 21.9262 112.78 22.2424 112.914 24.006C113.023 25.429 114.264 26.7668 115.675 26.7547C117.669 26.7425 117.803 24.7479 118.277 23.3978ZM146.3 28.9318C147.333 32.9697 147.82 35.3049 150.824 36.8617C151.274 33.444 150.119 31.498 146.3 28.9318Z" fill="#EAEAEA"/>
<path d="M91.7145 122.875C91.7145 128.324 91.7266 133.761 91.7145 139.209C91.7023 143.15 89.732 145.169 85.767 145.193C83.5535 145.206 81.3277 145.242 79.1142 145.181C75.4533 145.084 73.5316 143.126 73.5194 139.489C73.483 128.397 73.4951 117.305 73.5073 106.213C73.5073 102.272 75.4898 100.253 79.4547 100.229C81.4737 100.217 83.4927 100.241 85.4995 100.217C89.7685 100.168 91.7753 102.284 91.7388 106.529C91.6901 111.99 91.7266 117.427 91.7145 122.875ZM85.5968 123.167C85.5968 118.533 85.5968 113.899 85.5968 109.266C85.5968 107.259 84.563 106.359 82.6048 106.359C80.6466 106.359 79.6128 107.247 79.6128 109.266C79.6128 118.132 79.6007 126.986 79.6007 135.853C79.6007 137.689 80.1601 138.954 82.3007 139.051C84.5994 139.149 85.6332 138.127 85.6211 135.853C85.5968 131.632 85.6211 127.4 85.5968 123.167Z" fill="#EAEAEA"/>
<path d="M118.447 122.9C118.447 128.348 118.459 133.785 118.435 139.234C118.423 143.187 116.416 145.181 112.463 145.193C110.25 145.206 108.024 145.242 105.811 145.181C102.137 145.072 100.252 143.089 100.24 139.465C100.204 128.373 100.216 117.281 100.228 106.188C100.228 102.236 102.247 100.241 106.2 100.229C108.219 100.229 110.238 100.241 112.244 100.217C116.526 100.168 118.496 102.333 118.459 106.553C118.411 112.014 118.447 117.463 118.447 122.9ZM106.309 122.717C106.309 126.743 106.309 130.781 106.309 134.807C106.309 136.862 106.175 138.978 109.192 139.063C112.099 139.149 112.378 137.312 112.366 135.099C112.342 126.84 112.342 118.582 112.366 110.311C112.378 108.086 112.074 106.261 109.18 106.359C106.151 106.456 106.321 108.584 106.321 110.628C106.309 114.666 106.309 118.691 106.309 122.717Z" fill="#EAEAEA"/>
<path d="M64.9938 122.875C64.9938 127.91 64.8844 132.957 65.0303 137.993C65.1519 142.627 63.51 145.168 58.4626 145.266C50.7637 145.412 47.0055 143.794 46.8718 138.856C46.5799 127.776 46.7258 116.684 46.8109 105.592C46.8353 102.259 48.7813 100.411 52.1259 100.265C54.3395 100.167 56.5652 100.253 58.7788 100.228C63.0478 100.18 65.0425 102.308 65.006 106.541C64.9573 111.989 64.9938 117.426 64.9938 122.875ZM52.8557 122.498C52.8557 126.73 52.88 130.963 52.8435 135.195C52.8192 137.47 53.257 139.185 56.1152 139.063C58.6937 138.953 58.9004 137.263 58.9004 135.317C58.8883 126.852 58.8883 118.399 58.9004 109.934C58.9004 107.866 58.4018 106.382 55.9328 106.358C53.5125 106.334 52.8314 107.684 52.8435 109.812C52.88 114.045 52.8678 118.277 52.8557 122.498Z" fill="#EAEAEA"/>
</svg>
