<svg width="23" height="22" viewBox="0 0 23 22" fill="none" xmlns="http://www.w3.org/2000/svg">
<path d="M15.9368 14.5826L16.4628 14.06L15.2411 12.8325L14.7174 13.3551L15.9368 14.5826ZM18.2267 13.8408L20.4314 15.0394L21.2562 13.5189L19.0527 12.3215L18.2267 13.8408ZM20.8547 17.4206L19.2166 19.0507L20.436 20.277L22.0741 18.648L20.8547 17.4206ZM18.2175 19.5744C16.5447 19.7313 12.2186 19.5917 7.53246 14.9333L6.3119 16.1596C11.4249 21.2437 16.2921 21.4929 18.379 21.298L18.2175 19.5744ZM7.53246 14.9333C3.0667 10.4918 2.32606 6.75744 2.23377 5.13657L0.505614 5.23463C0.620979 7.27427 1.53813 11.4135 6.3119 16.1596L7.53246 14.9333ZM9.11872 7.80379L9.44982 7.47385L8.23157 6.24753L7.90047 6.57631L9.11872 7.80379ZM9.71285 3.28035L8.25926 1.33762L6.87373 2.3759L8.32732 4.31748L9.71285 3.28035ZM3.36665 0.91423L1.55543 2.71391L2.77599 3.94139L4.58605 2.14171L3.36665 0.91423ZM8.5096 7.19005C7.89816 6.57631 7.89817 6.57631 7.89817 6.57862H7.89586L7.8924 6.58324C7.83757 6.63851 7.78849 6.6992 7.74588 6.76436C7.68359 6.85665 7.61552 6.97778 7.55784 7.13122C7.41741 7.52729 7.38243 7.95308 7.45632 8.36677C7.61091 9.36467 8.29848 10.6833 10.0589 12.4345L11.2795 11.207C9.63094 9.56887 9.2387 8.57212 9.16602 8.10143C9.13141 7.87762 9.16717 7.76688 9.17756 7.7415C9.18448 7.72611 9.18448 7.72381 9.17756 7.73457C9.16727 7.75049 9.15569 7.76554 9.14295 7.77957L9.13141 7.7911L9.11987 7.80148L8.5096 7.19005ZM10.0589 12.4345C11.8206 14.1858 13.1461 14.8687 14.1451 15.021C14.6562 15.0994 15.0681 15.0371 15.3807 14.9206C15.5558 14.8566 15.7194 14.7646 15.8652 14.6484L15.9229 14.5964L15.931 14.5895L15.9344 14.5861L15.9356 14.5838C15.9356 14.5838 15.9368 14.5826 15.3265 13.9689C14.715 13.3551 14.7185 13.354 14.7185 13.354L14.7208 13.3517L14.7231 13.3494L14.73 13.3436L14.7416 13.3321L14.7854 13.2974C14.7962 13.2905 14.7935 13.2913 14.7773 13.2998C14.7485 13.3101 14.6354 13.3459 14.4082 13.3113C13.9306 13.2375 12.9269 12.8452 11.2795 11.207L10.0589 12.4345ZM8.25926 1.33646C7.08254 -0.232492 4.77064 -0.481679 3.36665 0.91423L4.58605 2.14171C5.19979 1.53143 6.28883 1.59488 6.87373 2.3759L8.25926 1.33646ZM2.23493 5.13772C2.21185 4.73856 2.39528 4.32094 2.77599 3.94255L1.55428 2.71507C0.93477 3.33111 0.446778 4.20327 0.505614 5.23463L2.23493 5.13772ZM19.2166 19.0507C18.9005 19.3668 18.559 19.5444 18.2187 19.5756L18.379 21.298C19.2269 21.2184 19.9203 20.7915 20.4371 20.2781L19.2166 19.0507ZM9.44982 7.47385C10.5862 6.34443 10.6704 4.55974 9.714 3.28151L8.32847 4.31863C8.79339 4.94045 8.72417 5.75607 8.23041 6.24868L9.44982 7.47385ZM20.4325 15.0406C21.375 15.5528 21.5215 16.7595 20.8559 17.4217L22.0765 18.648C23.6223 17.1102 23.1459 14.5457 21.2574 13.5201L20.4325 15.0406ZM16.4628 14.0612C16.9058 13.6205 17.6188 13.512 18.2279 13.842L19.0539 12.3226C17.8034 11.642 16.2529 11.83 15.2423 12.8337L16.4628 14.0612Z" fill="#B76D68"/>
</svg>
