<svg width="20" height="20" viewBox="0 0 20 20" fill="none" xmlns="http://www.w3.org/2000/svg">
<path d="M9.57461 3.76085C10.137 2.858 10.5874 2.06511 11.1054 1.32084C11.9808 0.0648957 13.3974 -0.309351 14.8289 0.280563C16.0573 0.785903 16.9327 2.29135 16.5204 3.65724C16.2223 4.64678 16.514 4.87302 17.3725 5.15846C18.4022 5.50099 19.0703 6.37212 19.0957 7.46949C19.1634 10.4571 19.1887 13.4469 19.1126 16.4324C19.0725 17.9843 17.9391 19.0838 16.3893 19.1007C11.818 19.1536 7.24667 19.1515 2.67536 19.1007C1.22278 19.0838 0.0746636 17.9209 0.0429477 16.4514C-0.020484 13.4997 -0.00779761 10.5438 0.0429477 7.59001C0.066206 6.296 0.971165 5.25361 2.24191 4.97028C2.80011 4.84553 2.99464 4.76941 2.75571 4.14567C2.20597 2.71 2.86566 0.995227 4.13218 0.348224C5.54459 -0.372783 7.18958 0.0479806 8.11569 1.40542C8.60834 2.12643 9.03756 2.88761 9.57461 3.76085ZM9.4985 17.8089C11.5389 17.8089 13.5814 17.8173 15.6218 17.8067C17.2266 17.7962 17.7975 17.2337 17.8038 15.6543C17.8144 13.227 17.8144 10.7975 17.8038 8.37022C17.7975 6.80557 17.1991 6.21354 15.6197 6.21143C11.6087 6.20297 7.59555 6.20508 3.58455 6.21143C1.92475 6.21354 1.3581 6.76962 1.34964 8.41885C1.33695 10.8123 1.34118 13.2058 1.34753 15.5972C1.35175 17.2316 1.92053 17.7962 3.58666 17.8067C5.55727 17.8173 7.52789 17.8089 9.4985 17.8089ZM10.6043 4.76518C11.7249 4.76518 12.6933 4.75673 13.6617 4.7673C14.6132 4.77575 15.0784 4.1795 15.2243 3.3718C15.3765 2.53239 14.9896 1.86001 14.1861 1.5196C13.3615 1.17072 12.6553 1.42656 12.1753 2.14757C11.6361 2.95949 11.1689 3.82005 10.6043 4.76518ZM8.53645 4.75673C7.96979 3.79891 7.50886 2.93624 6.96969 2.12643C6.48761 1.40119 5.74968 1.16226 4.95256 1.51748C4.23578 1.83887 3.7833 2.46261 3.91439 3.28088C4.04337 4.08224 4.44299 4.73981 5.40081 4.7525C6.3988 4.7673 7.39679 4.75673 8.53645 4.75673Z" fill="#B76D68"/>
<path d="M7.93268 7.67969C8.90318 8.45144 10.1105 7.92496 11.396 7.74312C13.2525 7.47882 14.6353 9.49806 14.0919 11.42C13.4597 13.6592 11.8358 15.0695 9.93923 16.2324C9.70665 16.3762 9.46349 16.3889 9.24148 16.2557C7.23493 15.0547 5.52227 13.5725 4.97887 11.1748C4.56657 9.35428 5.90709 7.67969 7.93268 7.67969ZM12.8021 10.6969C12.8359 10.0013 12.5738 9.46423 11.9225 9.17456C11.3136 8.90392 10.8569 9.15765 10.4467 9.62704C9.58824 10.606 9.57344 10.6039 8.66637 9.5911C8.31327 9.1957 7.91787 8.94198 7.37659 9.11747C6.79725 9.30565 6.42934 9.70104 6.349 10.3206C6.28345 10.8217 6.39551 11.2974 6.61118 11.7478C7.19052 12.9551 8.1272 13.8368 9.20977 14.5811C9.38526 14.7016 9.54807 14.765 9.78911 14.6741C10.9584 14.2322 12.7493 11.8916 12.8021 10.6969Z" fill="#B76D68"/>
</svg>
