<svg width="85" height="85" viewBox="0 0 85 85" fill="none" xmlns="http://www.w3.org/2000/svg">
<path fill-rule="evenodd" clip-rule="evenodd" d="M42.4999 4.66962e-10C48.0811 -2.61614e-05 53.6076 1.09925 58.764 3.23505C63.9203 5.37086 68.6055 8.50138 72.552 12.4479C76.4985 16.3943 79.629 21.0795 81.7649 26.2358C83.9007 31.3922 85 36.9187 85 42.4999C85 65.972 65.972 85 42.4999 85C19.028 85 0 65.972 0 42.4999C0 19.028 19.028 4.66962e-10 42.4999 4.66962e-10ZM46.75 46.75H38.25C27.7282 46.75 18.6951 53.1224 14.799 62.219C20.9636 70.8632 31.0735 76.4999 42.4999 76.4999C53.9263 76.4999 64.0362 70.8633 70.201 62.2184C66.3049 53.1224 57.2718 46.75 46.75 46.75ZM42.4999 12.75C35.4583 12.75 29.7499 18.4584 29.7499 25.5C29.7499 32.5416 35.4583 38.25 42.4999 38.25C49.5415 38.25 55.2499 32.5416 55.2499 25.5C55.2499 18.4584 49.5417 12.75 42.4999 12.75Z" fill="white"/>
</svg>
