<svg width="12" height="14" viewBox="0 0 12 14" fill="none" xmlns="http://www.w3.org/2000/svg">
<path d="M2.77543 13.5575C2.38512 13.5575 2.05112 13.4164 1.77341 13.1343C1.4957 12.8522 1.35661 12.5126 1.35613 12.1156V2.74379C1.15507 2.74379 0.986645 2.67458 0.850865 2.53617C0.715086 2.39775 0.64696 2.22666 0.646487 2.02288C0.646014 1.8191 0.71414 1.648 0.850865 1.50959C0.987591 1.37117 1.15601 1.30197 1.35613 1.30197H4.19473C4.19473 1.09771 4.26285 0.926612 4.3991 0.788677C4.53536 0.650743 4.70378 0.581535 4.90437 0.581055H7.74296C7.94403 0.581055 8.11269 0.650262 8.24894 0.788677C8.3852 0.927093 8.45308 1.09819 8.45261 1.30197H11.2912C11.4923 1.30197 11.6609 1.37117 11.7972 1.50959C11.9334 1.648 12.0013 1.8191 12.0009 2.02288C12.0004 2.22666 11.9323 2.39799 11.7965 2.53689C11.6607 2.67579 11.4923 2.74475 11.2912 2.74379V12.1156C11.2912 12.5122 11.1523 12.8517 10.8746 13.1343C10.5969 13.4169 10.2627 13.558 9.87191 13.5575H2.77543ZM9.87191 2.74379H2.77543V12.1156H9.87191V2.74379ZM4.90437 10.6738C5.10544 10.6738 5.2741 10.6046 5.41035 10.4662C5.5466 10.3278 5.61449 10.1567 5.61402 9.95291V4.90653C5.61402 4.70227 5.54589 4.53117 5.40964 4.39324C5.27339 4.2553 5.10497 4.1861 4.90437 4.18562C4.70378 4.18513 4.53536 4.25434 4.3991 4.39324C4.26285 4.53213 4.19473 4.70323 4.19473 4.90653V9.95291C4.19473 10.1572 4.26285 10.3285 4.3991 10.4669C4.53536 10.6053 4.70378 10.6743 4.90437 10.6738ZM7.74296 10.6738C7.94403 10.6738 8.11269 10.6046 8.24894 10.4662C8.3852 10.3278 8.45308 10.1567 8.45261 9.95291V4.90653C8.45261 4.70227 8.38449 4.53117 8.24823 4.39324C8.11198 4.2553 7.94356 4.1861 7.74296 4.18562C7.54237 4.18513 7.37395 4.25434 7.2377 4.39324C7.10144 4.53213 7.03332 4.70323 7.03332 4.90653V9.95291C7.03332 10.1572 7.10144 10.3285 7.2377 10.4669C7.37395 10.6053 7.54237 10.6743 7.74296 10.6738Z" fill="#B76D68"/>
</svg>
