<?xml version="1.0" standalone="no"?>
<!DOCTYPE svg PUBLIC "-//W3C//DTD SVG 20010904//EN"
 "http://www.w3.org/TR/2001/REC-SVG-20010904/DTD/svg10.dtd">
<svg version="1.0" xmlns="http://www.w3.org/2000/svg"
 width="153.000000pt" height="134.000000pt" viewBox="0 0 153.000000 134.000000"
 preserveAspectRatio="xMidYMid meet">

<g transform="translate(0.000000,134.000000) scale(0.100000,-0.100000)"
fill="#000000" stroke="none">
<path d="M723 1275 c-12 -8 -31 -31 -43 -50 -29 -47 -52 -45 -90 10 -23 33
-38 45 -56 45 -65 0 -94 -196 -44 -294 31 -61 90 -110 171 -141 34 -14 66 -31
71 -38 10 -16 10 -658 0 -674 -5 -9 -36 19 -96 85 -49 53 -91 102 -93 109 -2
6 7 37 22 68 65 144 29 294 -90 373 -46 31 -110 51 -122 38 -3 -3 -5 -36 -5
-73 1 -37 -3 -70 -9 -74 -6 -3 -33 -2 -61 3 -40 8 -54 6 -75 -8 -24 -15 -25
-20 -20 -79 4 -39 2 -66 -5 -73 -7 -7 -34 -9 -74 -5 -54 5 -65 3 -70 -11 -20
-52 67 -175 153 -217 72 -34 180 -32 252 5 34 18 61 25 75 21 11 -3 70 -60
130 -126 103 -112 110 -118 125 -102 125 140 217 233 229 233 8 0 40 -12 71
-27 46 -23 69 -28 131 -28 64 1 83 5 128 30 59 32 108 87 128 143 24 68 22 71
-58 74 l-73 3 0 72 c0 100 -1 100 -135 90 -25 -2 -25 -1 -25 71 0 81 -10 95
-54 82 -73 -21 -142 -81 -182 -160 -34 -67 -33 -166 4 -244 15 -32 27 -65 27
-74 0 -16 -166 -202 -181 -202 -5 0 -9 146 -9 344 l0 344 49 17 c140 46 221
148 221 278 0 66 -17 121 -47 149 l-23 22 -48 -47 c-26 -26 -51 -47 -56 -47
-4 0 -29 23 -55 50 -52 55 -57 57 -88 35z m-173 -35 c0 -5 14 -25 31 -45 44
-50 82 -46 122 13 16 23 36 42 46 42 10 0 35 -20 55 -45 51 -62 84 -62 128 0
17 24 35 42 41 38 19 -12 37 -74 37 -130 -1 -227 -273 -341 -439 -183 -73 70
-100 189 -63 273 19 42 42 63 42 37z m-77 -506 c119 -84 130 -271 24 -382
-101 -105 -265 -107 -368 -4 -29 29 -51 62 -58 86 -6 22 -9 41 -8 42 1 1 23
-2 50 -7 53 -9 94 1 104 27 3 10 1 37 -5 61 -16 60 -2 88 39 79 16 -3 42 -9
58 -12 22 -5 34 -1 51 16 19 19 21 28 15 80 l-7 58 30 -7 c17 -3 51 -20 75
-37z m658 -19 c-2 -50 1 -64 18 -79 18 -16 26 -17 67 -7 25 7 55 9 66 5 21 -6
21 -24 2 -106 -4 -19 0 -32 15 -47 19 -19 29 -21 81 -15 69 8 71 4 39 -63 -50
-104 -192 -158 -310 -118 -128 44 -206 198 -165 323 20 58 80 132 128 155 54
27 62 20 59 -48z"/>
</g>
</svg>
