<svg width="20" height="20" viewBox="0 0 20 20" fill="none" xmlns="http://www.w3.org/2000/svg">
<path d="M10.4232 19.1742C8.66401 19.1742 6.901 19.2308 5.14554 19.1591C2.57842 19.0534 1.03815 17.7245 0.75879 15.1612C0.570031 13.4321 0.596457 11.6503 0.796542 9.92122C1.0759 7.51266 2.88421 6.02524 5.31165 6.06677C5.81752 6.07432 6.31585 6.57641 6.81795 6.852C6.40268 7.20309 6.03271 7.76559 5.56459 7.86375C3.01634 8.39982 2.52557 8.91702 2.47272 11.4766C2.35569 17.0639 2.57465 17.2904 8.16946 17.2904C10.495 17.2904 12.8205 17.3243 15.146 17.2753C17.1808 17.2337 17.9887 16.4221 18.0868 14.4024C18.1359 13.3982 18.1095 12.3902 18.0982 11.386C18.0717 8.93967 17.5772 8.41115 15.1347 7.86752C14.6401 7.75804 14.2324 7.2484 13.7869 6.91996C14.3343 6.62549 14.8893 6.06677 15.4329 6.08187C18.0378 6.14604 19.6837 7.62214 19.9103 10.2157C20.0613 11.956 20.016 13.7379 19.8121 15.4745C19.5592 17.6188 18.0566 18.9703 15.8935 19.1024C14.0776 19.2119 12.2504 19.1251 10.4308 19.1251C10.4232 19.144 10.4232 19.1591 10.4232 19.1742Z" fill="black"/>
<path d="M9.38057 3.09546C8.74634 3.62399 8.49718 3.9562 8.16874 4.06946C7.81765 4.19026 7.13057 4.22802 7.05884 4.07701C6.87763 3.70327 6.76438 3.03506 6.97579 2.77457C7.76857 1.80813 8.63686 0.868109 9.62218 0.109299C9.93552 -0.132312 10.8 0.0639968 11.2417 0.335809C11.8684 0.720877 12.4385 1.29093 12.8386 1.91006C13.2464 2.53674 13.4162 3.3182 13.688 4.03171C12.9859 3.95243 12.2837 3.86937 11.2606 3.75234C11.2606 5.54178 11.2606 7.6219 11.2606 9.70202C11.2606 10.2041 11.389 10.7553 11.2229 11.197C11.019 11.7406 10.5698 12.1936 10.23 12.6882C9.94685 12.2087 9.43343 11.7368 9.41455 11.2498C9.33527 8.69027 9.38057 6.12693 9.38057 3.09546Z" fill="black"/>
</svg>
