<svg width="17" height="21" viewBox="0 0 17 21" fill="none" xmlns="http://www.w3.org/2000/svg">
<path d="M6.71005 4.07857C7.09756 2.76667 7.37466 1.63662 7.78815 0.558531C7.89422 0.28576 8.43977 0.181847 8.78398 0C8.86408 0.365859 9.00046 0.731718 9.00696 1.09974C9.01129 1.32705 8.84243 1.57168 8.71254 1.786C8.1172 2.77966 8.31637 3.59148 9.16499 4.36C10.0461 5.15667 10.8795 6.01178 11.6935 6.87989C12.4188 7.6549 13.1721 7.73933 14.1182 7.27822C14.681 7.00328 15.4734 6.17198 15.9301 7.2241C16.3263 8.13766 15.259 8.27405 14.7135 8.4862C13.8735 8.81093 12.9556 8.93649 11.8775 9.19411C11.6546 10.4735 11.3926 11.9868 11.1285 13.5C10.8731 14.9634 10.4726 15.2145 8.96366 15.3033C6.8486 15.4267 4.72922 15.5956 2.63365 15.8965C0.37571 16.2212 -0.245601 15.5847 0.0812906 13.3398C0.37571 11.3178 0.50993 9.26338 0.592195 7.21977C0.66147 5.5182 1.04032 5.00513 2.74838 4.74751C4.16203 4.53319 5.56701 4.27341 6.71005 4.07857ZM1.69194 13.3138C2.53623 12.0495 4.12306 11.6945 4.04946 9.98861C3.9975 8.7633 4.86993 7.91901 6.03462 7.92334C7.13653 7.92767 8.06308 8.82392 8.06741 9.88686C8.07174 11.0472 7.09107 11.9694 5.88741 11.9478C5.58217 11.9413 5.18384 11.8569 4.989 12.0106C4.19017 12.6492 3.45412 13.3636 2.69643 14.052C4.98034 14.1191 7.05426 14.0152 9.12386 13.855C9.33168 13.8377 9.63043 13.5 9.68672 13.2619C9.90104 12.3548 9.88805 11.3676 10.2279 10.519C11.1025 8.3325 10.1348 6.88421 8.49605 5.65675C8.2406 5.46624 7.83794 5.32769 7.5327 5.37315C5.93287 5.60262 4.33738 5.88189 2.75055 6.19146C2.49943 6.24126 2.11841 6.52485 2.10326 6.72402C1.9344 8.81959 1.83049 10.9195 1.69194 13.3138ZM6.87675 9.94314C6.49357 9.65738 6.24894 9.33699 6.02596 9.34998C5.8203 9.36296 5.63629 9.73315 5.44145 9.94747C5.6601 10.1401 5.85927 10.4389 6.10606 10.4887C6.27708 10.5255 6.51738 10.2137 6.87675 9.94314Z" fill="#B76D68"/>
<path d="M5.55046 19.0641C4.26455 19.3477 2.9743 19.6356 1.68188 19.9105C1.40262 19.969 1.06707 20.0772 0.839757 19.9776C0.564822 19.8543 0.263908 19.5598 0.194633 19.2849C0.153501 19.1247 0.51503 18.7047 0.744504 18.6593C3.50468 18.1116 6.20425 17.3257 9.10081 18.3583C10.2244 18.7588 11.6813 18.2436 12.9846 18.1072C13.6578 18.0358 14.3224 17.8041 14.9914 17.7998C15.275 17.7976 15.5629 18.1981 15.8486 18.4146C15.5932 18.6614 15.3745 19.0424 15.0736 19.129C14.1492 19.3975 13.1859 19.5317 12.2507 19.7612C10.6638 20.1508 9.12463 19.969 7.58326 19.4971C6.93813 19.3001 6.26053 19.2113 5.55046 19.0641Z" fill="#B76D68"/>
</svg>
