<svg width="61" height="42" viewBox="0 0 61 42" fill="none" xmlns="http://www.w3.org/2000/svg">
<path d="M60.5323 33.4892C59.7319 34.5439 58.8312 35.5169 57.8488 36.4013C57.3425 36.8587 56.8128 37.2904 56.2621 37.694C52.776 40.2655 48.4661 41.7869 43.8039 41.7869C39.1394 41.7869 34.8319 40.2655 31.3457 37.694C30.795 37.288 30.2677 36.8563 29.759 36.4013C28.7766 35.5193 27.8782 34.5439 27.0755 33.4892C26.6975 32.9922 26.3405 32.4812 26.0092 31.9515C25.5705 31.2538 25.1691 30.5257 24.8145 29.7767C26.1375 29.555 27.4232 29.2167 28.6576 28.778C28.7043 28.8667 28.751 28.953 28.7976 29.0393C29.0916 29.5714 29.4113 30.0847 29.7567 30.5794C30.501 31.6458 31.3644 32.6212 32.3281 33.4915C32.8391 33.9535 33.3781 34.3852 33.9452 34.7842C36.7313 36.7513 40.1311 37.904 43.8016 37.904C47.4721 37.904 50.8719 36.749 53.658 34.7842C54.2227 34.3852 54.764 33.9535 55.2751 33.4915C54.764 33.0295 54.2227 32.5978 53.658 32.1988C50.8695 30.2341 47.4697 29.079 43.8016 29.079C40.1311 29.079 36.7313 30.2341 33.9452 32.1988C32.9581 31.3448 32.0831 30.3671 31.3434 29.2867C34.8295 26.7152 39.1371 25.1938 43.8016 25.1938C48.4661 25.1938 52.776 26.7152 56.2598 29.2867C56.8105 29.6927 57.3378 30.1244 57.8465 30.5794C58.8312 31.4591 59.7296 32.4345 60.5323 33.4892Z" fill="#DEA186"/>
<path d="M42.0158 7.29664C42.0158 15.7623 37.0082 23.0566 29.7956 26.3841C29.1796 26.6688 28.5495 26.9231 27.9032 27.1471C26.6828 27.5718 25.4111 27.8845 24.0997 28.0782C23.4953 28.1668 22.8863 28.2299 22.2656 28.2672C21.8503 28.2929 21.4302 28.3045 21.0079 28.3045C20.5855 28.3045 20.1655 28.2929 19.7502 28.2672C19.1318 28.2299 18.5204 28.1668 17.9161 28.0782C16.6047 27.8868 15.333 27.5695 14.1126 27.1471C13.4662 26.9231 12.8362 26.6688 12.2202 26.3841C5.00754 23.0566 0 15.7623 0 7.29664C0 6.79495 0.0163343 6.30026 0.0513358 5.80791C0.100338 5.12188 0.179674 4.44752 0.291679 3.78249C0.511021 2.47577 0.851703 1.21105 1.30206 0C2.61344 0.191341 3.88516 0.508688 5.10555 0.931039C5.75191 1.15505 6.38193 1.40939 6.99796 1.69407C14.2106 5.02154 19.2181 12.3158 19.2181 20.7792C19.2181 21.2809 19.2018 21.7779 19.1668 22.2679C17.8251 22.1046 16.537 21.7662 15.3283 21.2739C15.333 21.1082 15.3353 20.9449 15.3353 20.7792C15.3353 14.1383 11.5528 8.37935 6.02492 5.53957C5.39956 5.21755 4.75087 4.93287 4.08117 4.6902C3.97383 5.38089 3.91083 6.08792 3.88983 6.80195C3.88516 6.96763 3.88283 7.13097 3.88283 7.29664C3.88283 13.9399 7.66532 19.6988 13.1932 22.5386C13.8186 22.8606 14.4673 23.1453 15.137 23.388C16.341 23.8267 17.6104 24.137 18.9265 24.2957C19.5145 24.368 20.1118 24.41 20.7185 24.4194C20.8142 24.4217 20.9099 24.4217 21.0079 24.4217C21.1036 24.4217 21.2016 24.4217 21.2972 24.4194C21.9039 24.41 22.5013 24.368 23.0893 24.2957C24.403 24.137 25.6724 23.829 26.8788 23.388C27.5462 23.1453 28.1972 22.8583 28.8225 22.5386C34.3504 19.6988 38.1329 13.9399 38.1329 7.29664C38.1329 7.13097 38.1306 6.96763 38.1259 6.80195C38.1049 6.08559 38.0419 5.38089 37.9346 4.6902C37.2649 4.93287 36.6162 5.21755 35.9908 5.53957C30.4629 8.37935 26.6805 14.1383 26.6805 20.7792C26.6805 20.9449 26.6828 21.1106 26.6875 21.2739C25.4787 21.7662 24.1907 22.1046 22.849 22.2679C22.814 21.7756 22.7976 21.2786 22.7976 20.7792C22.7976 12.3135 27.8052 5.01921 35.0178 1.69407C35.6338 1.40939 36.2639 1.15505 36.9102 0.931039C38.1306 0.506355 39.4023 0.191341 40.7137 0C41.1641 1.21105 41.5024 2.4781 41.7241 3.78249C41.8361 4.44752 41.9178 5.12188 41.9644 5.80791C41.9994 6.29793 42.0158 6.79495 42.0158 7.29664Z" fill="#DEA186"/>
</svg>
