<svg width="16" height="23" viewBox="0 0 16 23" fill="none" xmlns="http://www.w3.org/2000/svg">
<path d="M6.10692 1.19088C7.55331 -0.325273 7.99746 -0.334575 9.19038 1.11414C9.26014 1.10484 9.36246 1.11879 9.39269 1.07926C9.79266 0.553722 10.2089 -0.0997106 10.9367 0.0653917C11.7111 0.242121 11.832 1.08158 11.9901 1.72572C12.5459 3.99762 11.439 6.02768 9.18341 6.89272C8.75321 7.05782 8.37417 7.12061 8.42068 7.69498C8.47882 8.40655 9.02295 8.15541 9.38571 8.16471C10.4275 8.19494 11.4716 8.19959 12.5157 8.16703C13.3528 8.14145 13.6877 8.47863 13.676 9.33438C13.6528 11.0087 13.4296 12.648 12.925 14.2363C12.7645 14.7386 12.6715 14.9525 13.2645 15.2688C15.1062 16.257 15.7549 17.8058 15.2829 19.7009C14.8922 21.2682 13.3179 22.4356 11.439 22.4612C8.92761 22.4961 6.4162 22.503 3.90478 22.4588C1.98634 22.4263 0.549255 21.2473 0.114408 19.4754C-0.29486 17.8127 0.40043 16.2408 2.09564 15.3339C2.72349 14.9967 2.64675 14.6828 2.46537 14.1712C1.89565 12.5504 1.76543 10.8622 1.74915 9.15532C1.74218 8.45771 2.04215 8.16936 2.70954 8.17401C3.79084 8.18099 4.87447 8.19959 5.95345 8.15773C6.31156 8.14378 6.8557 8.44375 6.98592 7.77404C7.10684 7.15316 6.6906 7.03922 6.21622 6.86249C3.76991 5.94862 2.65373 3.44185 3.63039 1.1467C4.23964 -0.283416 4.83726 -0.36713 5.8302 0.846721C5.92322 0.958339 6.01391 1.07461 6.10692 1.19088ZM7.71376 21.0752C8.8346 21.0752 9.95311 21.0752 11.0739 21.0752C11.8204 21.0752 12.5413 20.952 13.1342 20.466C13.8923 19.8451 14.1365 19.0336 13.9086 18.0848C13.6528 17.0198 12.9296 16.4291 11.8878 16.2943C10.853 16.1617 10.6065 15.7152 11.1205 14.8269C11.7111 13.8061 11.932 12.6829 12.0925 11.5272C12.3645 9.57156 12.3924 9.57622 10.4624 9.57622C8.48114 9.57622 8.47882 9.57622 8.39975 11.5249C8.37882 12.0411 8.39975 12.6108 7.66726 12.5783C7.03475 12.5504 7.02545 12.0341 6.99987 11.5551C6.88825 9.57622 6.88593 9.57622 4.85354 9.57622C4.50706 9.57622 4.15593 9.59714 3.81177 9.57156C3.30018 9.53668 3.13276 9.75527 3.16996 10.2552C3.29321 11.8365 3.46064 13.4178 4.26754 14.8176C4.74425 15.6455 4.66751 16.0524 3.67457 16.271C2.16307 16.6012 1.32361 17.5732 1.4143 18.7475C1.51661 20.0893 2.54211 20.9962 4.1257 21.0613C5.31862 21.1124 6.51852 21.0729 7.71376 21.0752ZM7.73237 1.66293C6.35806 3.09072 6.2418 3.11165 4.84657 2.15824C4.52334 3.43255 4.94423 4.5278 6.02321 5.22542C7.07661 5.90676 8.5323 5.8835 9.49501 5.17426C10.5879 4.36735 10.9321 3.33721 10.5252 2.07685C9.25549 3.13025 8.97412 3.09072 7.73237 1.66293Z" fill="#B76D68"/>
</svg>
