<svg width="15" height="19" viewBox="0 0 15 19" fill="none" xmlns="http://www.w3.org/2000/svg">
<path d="M3.61538 4.92308H11.4615M3.61538 8H11.4615M3.61538 11H11.4615M3.61538 14H6.23077M2.30769 18H12.7692C13.1161 18 13.4487 17.8622 13.6939 17.617C13.9391 17.3717 14.0769 17.0391 14.0769 16.6923V2.30769C14.0769 1.96087 13.9391 1.62825 13.6939 1.38301C13.4487 1.13777 13.1161 1 12.7692 1H2.30769C1.96087 1 1.62825 1.13777 1.38301 1.38301C1.13777 1.62825 1 1.96087 1 2.30769V16.6923C1 17.0391 1.13777 17.3717 1.38301 17.617C1.62825 17.8622 1.96087 18 2.30769 18Z" stroke="#B76D68" stroke-width="1.30769" stroke-linecap="round" stroke-linejoin="round"/>
</svg>
