<svg width="131" height="158" viewBox="0 0 131 158" fill="none" xmlns="http://www.w3.org/2000/svg">
<path d="M77.9 14.45C77.15 39.65 76.325 82.4 75.425 142.7L94.325 144.5C94.325 148.7 93.05 153.2 90.5 158H38.75L38.075 150.125C46.775 146.975 53.675 145.175 58.775 144.725C57.275 86.825 56.075 43.4 55.175 14.45H22.325L16.925 37.4L3.875 36.5C1.625 27.35 0.5 18.05 0.5 8.59999C0.5 6.79999 0.65 4.09999 0.95 0.499989H130.55C130.85 2.44999 131 5.44999 131 9.49999C131 17.6 129.95 26.45 127.85 36.05C124.55 36.95 120.2 37.4 114.8 37.4L109.175 14.45H77.9Z" fill="#B76D68"/>
</svg>
