<svg width="120" height="120" viewBox="0 0 120 120" fill="none" xmlns="http://www.w3.org/2000/svg">
<circle cx="60" cy="60" r="60" fill="#F8F8F8"/>
<path fill-rule="evenodd" clip-rule="evenodd" d="M60 19.2C52.8639 19.1987 45.8522 21.0691 39.6649 24.6245C33.4775 28.1799 28.3309 33.296 24.7387 39.462C21.1465 45.6281 19.2344 52.6285 19.1932 59.7645C19.1521 66.9005 20.9833 73.9225 24.504 80.1296C26.8837 77.0369 29.9428 74.5328 33.4448 72.811C36.9467 71.0892 40.7977 70.1958 44.7 70.1999H75.3C79.2023 70.1958 83.0533 71.0892 86.5552 72.811C90.0572 74.5328 93.1162 77.0369 95.4959 80.1296C99.0167 73.9225 100.848 66.9005 100.807 59.7645C100.766 52.6285 98.8535 45.6281 95.2613 39.462C91.6691 33.296 86.5225 28.1799 80.3351 24.6245C74.1478 21.0691 67.1361 19.1987 60 19.2ZM100.509 90.9875C101.148 90.1545 101.76 89.3011 102.345 88.4273C107.999 80.0261 111.013 70.1266 111 59.9999C111 31.8327 88.1673 9 60 9C31.8327 9 9.00005 31.8327 9.00005 59.9999C8.98398 71.2034 12.6723 82.0979 19.4907 90.9875L19.4652 91.0793L21.2757 93.1856C26.0589 98.7778 31.9979 103.266 38.6832 106.342C45.3685 109.417 52.6412 111.006 60 111C61.1016 111 62.1964 110.966 63.2844 110.898C72.4868 110.318 81.3572 107.241 88.9425 101.998C92.5701 99.4958 95.8581 96.5335 98.7243 93.1856L100.535 91.0793L100.509 90.9875ZM60 29.4C55.9422 29.4 52.0506 31.0119 49.1813 33.8812C46.312 36.7505 44.7 40.6422 44.7 44.7C44.7 48.7578 46.312 52.6494 49.1813 55.5187C52.0506 58.388 55.9422 59.9999 60 59.9999C64.0578 59.9999 67.9494 58.388 70.8187 55.5187C73.688 52.6494 75.3 48.7578 75.3 44.7C75.3 40.6422 73.688 36.7505 70.8187 33.8812C67.9494 31.0119 64.0578 29.4 60 29.4Z" fill="#C6C6C6"/>
</svg>
