<svg width="21" height="19" viewBox="0 0 21 19" fill="none" xmlns="http://www.w3.org/2000/svg">
<path d="M4.32353 0C3.50448 0 2.71897 0.325367 2.13982 0.904523C1.56066 1.48368 1.23529 2.26918 1.23529 3.08824V6.59276C1.61824 6.40994 2.03453 6.28271 2.47059 6.21971V3.08824C2.47059 2.5968 2.66581 2.1255 3.0133 1.77801C3.3608 1.43051 3.8321 1.23529 4.32353 1.23529H12.9706C13.462 1.23529 13.9333 1.43051 14.2808 1.77801C14.6283 2.1255 14.8235 2.5968 14.8235 3.08824V11.7353C14.8235 12.2267 14.6283 12.698 14.2808 13.0455C13.9333 13.393 13.462 13.5882 12.9706 13.5882H12.3529V14.8235H12.9706C13.7896 14.8235 14.5751 14.4982 15.1543 13.919C15.7335 13.3398 16.0588 12.5543 16.0588 11.7353V10.5L19.0235 12.7235C19.2071 12.8612 19.4253 12.945 19.6538 12.9656C19.8823 12.9862 20.112 12.9428 20.3171 12.8402C20.5223 12.7376 20.6949 12.5799 20.8155 12.3847C20.9361 12.1896 21 11.9647 21 11.7353V3.08824C21 2.85883 20.9361 2.63395 20.8155 2.4388C20.6949 2.24366 20.5223 2.08595 20.3171 1.98335C20.112 1.88076 19.8823 1.83733 19.6538 1.85793C19.4253 1.87853 19.2071 1.96235 19.0235 2.1L16.0588 4.32353V3.08824C16.0588 2.26918 15.7335 1.48368 15.1543 0.904523C14.5751 0.325367 13.7896 0 12.9706 0H4.32353ZM16.0588 5.86765L19.7647 3.08824V11.7353L16.0588 8.95588V5.86765ZM0 10.5C0 9.68095 0.325367 8.89544 0.904523 8.31629C1.48368 7.73713 2.26918 7.41176 3.08824 7.41176H8.02941C8.84846 7.41176 9.63397 7.73713 10.2131 8.31629C10.7923 8.89544 11.1176 9.68095 11.1176 10.5V15.4412C11.1176 16.2602 10.7923 17.0457 10.2131 17.6249C9.63397 18.204 8.84846 18.5294 8.02941 18.5294H3.08824C2.26918 18.5294 1.48368 18.204 0.904523 17.6249C0.325367 17.0457 0 16.2602 0 15.4412V10.5ZM4.96588 10.542C4.88588 10.4868 4.79279 10.4535 4.69589 10.4454C4.599 10.4374 4.5017 10.455 4.41371 10.4963C4.34154 10.5281 4.27613 10.5733 4.221 10.6297C4.16346 10.6877 4.118 10.7566 4.08725 10.8323C4.05651 10.908 4.04109 10.989 4.04188 11.0707V14.8692C4.04092 14.9511 4.05626 15.0324 4.08701 15.1083C4.11776 15.1843 4.16331 15.2533 4.221 15.3115C4.27832 15.367 4.34423 15.4129 4.41618 15.4474C4.54151 15.5048 4.68371 15.5136 4.81518 15.4721C4.87226 15.4536 4.92636 15.427 4.97576 15.393L7.812 13.4573C7.89826 13.4004 7.96777 13.3215 8.01335 13.2288C8.0599 13.1352 8.08381 13.032 8.08317 12.9275C8.08253 12.823 8.05734 12.7202 8.00965 12.6272C7.96042 12.536 7.88905 12.4587 7.80212 12.4024L4.96588 10.542Z" fill="#B76D68"/>
</svg>
