<svg width="22" height="20" viewBox="0 0 22 20" fill="none" xmlns="http://www.w3.org/2000/svg">
<path d="M10.7172 19.9013C8.90889 19.9013 7.09163 20.1415 5.28995 19.8724C2.3294 19.4342 0.142911 17.0587 0.051715 14.0558C-0.0239113 11.5446 -0.00389253 9.02892 0.0316963 6.51546C0.0828553 2.71412 2.5029 0.180641 6.30201 0.064977C9.29592 -0.0262194 12.2965 -0.0217708 15.2882 0.0805471C18.8537 0.20066 21.3049 2.68076 21.405 6.22185C21.4806 8.84208 21.4718 11.469 21.3895 14.0892C21.2938 17.1476 19.0962 19.5632 16.0333 19.8724C14.2784 20.0459 12.49 19.9013 10.7172 19.9013ZM10.7462 18.5C10.7462 18.4956 10.7462 18.4889 10.7462 18.4844C12.3365 18.4844 13.9291 18.52 15.5195 18.4755C17.8817 18.4088 19.8591 16.4225 20.0082 14.0892C20.0437 13.5265 19.8547 13.3797 19.3342 13.3908C18.2621 13.4175 17.1877 13.4086 16.1156 13.3952C14.047 13.3708 12.9638 12.2008 12.9482 9.99427C12.9304 7.58535 13.9558 6.40202 16.1179 6.35531C17.1544 6.33306 18.1909 6.32194 19.2252 6.36198C19.8947 6.38645 20.0237 6.15289 19.9259 5.51007C19.6122 3.44147 17.8528 1.65091 15.7375 1.5953C12.4478 1.50633 9.15134 1.4952 5.86159 1.58418C3.63729 1.64423 1.7622 3.30579 1.56424 5.4856C1.28843 8.50176 1.25284 11.5491 1.58204 14.5652C1.83561 16.8807 3.7574 18.4444 6.0818 18.4933C7.63659 18.5245 9.19138 18.5 10.7462 18.5ZM17.6993 11.985C18.1064 11.985 18.5157 11.945 18.916 11.9939C19.7457 12.094 20.1394 11.8605 20.0393 10.9285C19.9526 10.1255 19.9948 9.30473 20.0304 8.49509C20.0526 7.97015 19.8836 7.77664 19.3453 7.79666C18.3488 7.83224 17.3523 7.79888 16.3559 7.80778C14.9256 7.82335 14.4296 8.31714 14.394 9.7318C14.3495 11.4601 14.8567 11.9806 16.5916 11.9828C16.9609 11.985 17.3301 11.985 17.6993 11.985Z" fill="#B76D68"/>
</svg>
