<svg width="19" height="22" viewBox="0 0 19 22" fill="none" xmlns="http://www.w3.org/2000/svg">
<path d="M10.7219 10.0935C12.0818 10.8007 13.5071 10.4283 14.8979 10.7255C16.578 11.0876 17.3148 12.116 17.3974 13.6807C17.4972 15.5562 17.1116 17.4011 16.8087 19.2391C16.5195 20.9814 15.3489 21.9175 13.5828 21.9551C10.8974 22.0097 8.20519 22.02 5.51983 21.9551C3.52647 21.9072 2.49708 20.9507 2.18379 18.9897C1.94279 17.4797 1.73622 15.9594 1.6054 14.4391C1.40228 12.0374 2.62446 10.6845 5.05506 10.5752C6.14986 10.5274 7.2481 10.5684 8.70439 10.5684C7.99174 9.83385 7.45811 9.89876 6.98989 9.82018C2.77939 9.113 0.221405 6.03486 0.149107 1.79516C0.125008 0.384206 0.751592 -0.029173 1.97722 0.00157425C4.60405 0.0699014 6.93137 0.865912 8.57701 2.9943C9.28967 3.9133 9.62017 3.9543 10.3879 2.98747C12.0818 0.845414 14.4642 -0.00525847 17.1736 0.0049906C18.3545 0.00840696 18.8709 0.490113 18.8502 1.7815C18.7779 6.08269 16.306 9.06517 12.0198 9.83385C11.586 9.91242 11.1556 10.0081 10.7219 10.0935ZM9.4377 12.6148C8.00551 12.6148 6.57676 12.6216 5.14457 12.6113C4.09452 12.6045 3.50237 13.0213 3.64696 14.1521C3.8432 15.669 4.04288 17.1858 4.23223 18.7027C4.31142 19.3347 4.60061 19.8438 5.27539 19.854C8.13289 19.8882 11.0007 19.9702 13.8513 19.8301C15.0838 19.7686 14.8704 18.4909 14.9393 17.6368C15.0322 16.5162 14.0992 16.9706 13.6 16.9604C11.4827 16.9091 9.36541 16.9365 7.24466 16.9399C6.42184 16.9433 5.46475 16.9843 5.4854 15.8671C5.50606 14.873 6.39774 14.8935 7.16892 14.8969C9.40328 14.9071 11.6342 14.914 13.8686 14.8901C14.4882 14.8832 15.3042 15.1839 15.3696 14.0599C15.4316 12.9803 14.8119 12.6421 13.8995 12.6216C12.4123 12.5977 10.925 12.6182 9.4377 12.6148ZM8.19486 7.0871C8.14667 4.69565 5.28572 2.0548 2.91365 2.09238C1.9841 2.10947 2.24575 2.69366 2.2974 3.13096C2.56593 5.41308 4.99997 7.64738 7.30663 7.80111C7.89534 7.84211 8.367 7.83528 8.19486 7.0871ZM16.7123 3.01822C16.757 2.21537 16.7295 2.17438 16.1236 2.12996C13.8169 1.95915 10.8699 4.66832 10.8217 7.00169C10.8114 7.46973 10.7735 7.83186 11.5068 7.83528C13.8135 7.85236 16.578 5.34817 16.7123 3.01822Z" fill="#B76D68"/>
<path d="M9.43785 12.615C10.9251 12.6184 12.4159 12.5945 13.9031 12.6253C14.812 12.6424 15.4317 12.9806 15.3732 14.0636C15.3112 15.1875 14.4918 14.8869 13.8721 14.8937C11.6412 14.9177 9.40687 14.9108 7.17251 14.9006C6.40133 14.8972 5.50965 14.8767 5.48899 15.8708C5.4649 16.9914 6.42543 16.947 7.24825 16.9436C9.36556 16.9367 11.4863 16.9128 13.6036 16.9641C14.0994 16.9743 15.0324 16.5199 14.9428 17.6405C14.874 18.4946 15.0874 19.7723 13.8549 19.8338C11.0009 19.9739 8.13649 19.8919 5.27899 19.8577C4.6042 19.8509 4.31501 19.3384 4.23583 18.7064C4.04647 17.1895 3.84335 15.6727 3.65055 14.1558C3.50596 13.0284 4.09467 12.6082 5.14816 12.615C6.57347 12.6219 8.00566 12.615 9.43785 12.615Z" fill="#DAB3B0" fill-opacity="0.2"/>
<path d="M8.19522 7.08739C8.36736 7.83558 7.8957 7.84241 7.30698 7.80141C5.00033 7.64768 2.56629 5.41338 2.29775 3.13125C2.24611 2.69396 1.98446 2.10635 2.91401 2.09268C5.28608 2.0551 8.14702 4.69594 8.19522 7.08739Z" fill="#DAB3B0" fill-opacity="0.2"/>
<path d="M16.7128 3.01821C16.5785 5.34816 13.8139 7.85235 11.5073 7.83527C10.774 7.82844 10.8118 7.4663 10.8222 7.00168C10.8704 4.66831 13.8174 1.96255 16.124 2.12996C16.73 2.17095 16.7575 2.21536 16.7128 3.01821Z" fill="#DAB3B0" fill-opacity="0.2"/>
</svg>
