<svg width="27" height="27" viewBox="0 0 27 27" fill="none" xmlns="http://www.w3.org/2000/svg">
<path d="M23.1969 3.8167C21.9943 2.60234 20.562 1.63947 18.9835 0.984214C17.405 0.328955 15.7119 -0.00559139 14.0029 7.06866e-05C6.84175 7.06866e-05 1.00532 5.8365 1.00532 12.9976C1.00532 15.2928 1.60863 17.5225 2.73657 19.4898L0.900391 26.2312L7.78607 24.4213C9.68783 25.4574 11.8257 26.0083 14.0029 26.0083C21.164 26.0083 27.0004 20.1718 27.0004 13.0107C27.0004 9.5351 25.6495 6.26932 23.1969 3.8167ZM14.0029 23.8048C12.0617 23.8048 10.16 23.2802 8.49431 22.2966L8.10084 22.0605L4.00878 23.1359L5.09738 19.1488L4.83506 18.7422C3.75637 17.0202 3.18371 15.0296 3.1825 12.9976C3.1825 7.04314 8.03526 2.19037 13.9897 2.19037C16.8752 2.19037 19.5901 3.31831 21.623 5.36434C22.6298 6.36619 23.4276 7.55798 23.9702 8.87057C24.5128 10.1832 24.7894 11.5904 24.7839 13.0107C24.8101 18.9652 19.9573 23.8048 14.0029 23.8048ZM19.9311 15.7256C19.6032 15.5683 18.0031 14.7813 17.7146 14.6633C17.4129 14.5584 17.2031 14.5059 16.9801 14.8207C16.7571 15.1486 16.1407 15.883 15.9571 16.0929C15.7735 16.3158 15.5767 16.3421 15.2488 16.1716C14.9209 16.0142 13.8717 15.6601 12.6388 14.5584C11.6683 13.6927 11.0256 12.6304 10.8289 12.3025C10.6453 11.9746 10.8027 11.8041 10.9732 11.6336C11.1174 11.4893 11.301 11.2532 11.4584 11.0696C11.6158 10.886 11.6814 10.7417 11.7863 10.5319C11.8912 10.3089 11.8388 10.1253 11.7601 9.96791C11.6814 9.81052 11.0256 8.21042 10.7633 7.55464C10.501 6.9251 10.2256 7.00379 10.0288 6.99067H9.39928C9.17632 6.99067 8.83531 7.06937 8.53366 7.39726C8.24511 7.72514 7.40572 8.51208 7.40572 10.1122C7.40572 11.7123 8.573 13.2599 8.73039 13.4698C8.88778 13.6927 11.0256 16.9716 14.2783 18.375C15.0521 18.716 15.6554 18.9127 16.1276 19.057C16.9014 19.3062 17.6096 19.2669 18.1736 19.1882C18.8032 19.0963 20.1016 18.4012 20.3639 17.6405C20.6393 16.8798 20.6393 16.2372 20.5475 16.0929C20.4557 15.9486 20.259 15.883 19.9311 15.7256Z" fill="#B76D68"/>
</svg>
